<?xml version="1.0" standalone="no"?>
<!DOCTYPE svg PUBLIC "-//W3C//DTD SVG 1.1//EN" "http://www.w3.org/Graphics/SVG/1.1/DTD/svg11.dtd" >
<svg xmlns="http://www.w3.org/2000/svg">
<metadata>Generated by IcoMoon</metadata>
<defs>
<font id="shMain" horiz-adv-x="1024">
<font-face units-per-em="1024" ascent="960" descent="-64" />
<missing-glyph horiz-adv-x="1024" />
<glyph unicode="&#x20;" horiz-adv-x="512" d="" />
<glyph unicode="&#xe900;" glyph-name="link" d="M97.28 448c0.067 87.632 71.088 158.653 158.714 158.72h204.806v97.28h-204.8c-141.385 0-256-114.615-256-256v0c0-141.385 114.615-256 256-256v0h204.8v97.319h-204.8c-87.618 0.067-158.63 71.066-158.72 158.672v0.009zM307.2 396.8h409.6v102.4h-409.6zM768 704h-204.8v-97.28h204.8c87.632-0.067 158.653-71.088 158.72-158.714v-0.006c-0.090-87.615-71.102-158.613-158.714-158.681h-204.806v-97.28h204.8c141.385 0 256 114.615 256 256v0c-0.022 141.368-114.629 255.961-256 255.961v0z" />
<glyph unicode="&#xe901;" glyph-name="add_document" d="M921.6 755.121h-409.6l-102.4 102.4h-307.2c-0.071 0-0.155 0-0.239 0-56.119 0-101.612-45.493-101.612-101.612 0-0.277 0.001-0.554 0.003-0.83v0.042l-0.512-614.4c0-0.105-0.001-0.23-0.001-0.355 0-56.358 45.687-102.046 102.046-102.046 0.125 0 0.25 0 0.374 0.001h819.142c0.105 0 0.23-0.001 0.355-0.001 56.358 0 102.046 45.687 102.046 102.046 0 0.125 0 0.25-0.001 0.374v-0.019 512c0 0.105 0.001 0.23 0.001 0.355 0 56.358-45.687 102.046-102.046 102.046-0.125 0-0.25 0-0.374-0.001h0.019zM870.4 345.521h-153.6v-153.6h-102.4v153.6h-153.6v102.4h153.6v153.6h102.4v-153.6h153.6z" />
<glyph unicode="&#xe902;" glyph-name="all_document" d="M85.346 704h-85.346v-597.307c0.134-47.082 38.265-85.212 85.334-85.346h768.013v85.346h-768zM938.654 789.346h-341.307l-85.346 85.346h-256c-47.082-0.134-85.212-38.265-85.346-85.334v-512.013c0.134-47.082 38.265-85.212 85.334-85.346h682.667c47.054 0.134 85.168 38.22 85.346 85.251v426.671c-0.134 47.082-38.265 85.212-85.334 85.346h-0.013z" />
<glyph unicode="&#xe903;" glyph-name="all_shared_documents" d="M921.6 755.2h-409.6l-102.4 102.4h-307.2c-56.333-0.291-101.888-46.025-101.888-102.399 0 0 0-0.001 0-0.001v0l-0.512-614.4c0.179-56.482 45.918-102.221 102.383-102.4h819.217c56.482 0.179 102.221 45.918 102.4 102.383v512.017c-0.179 56.482-45.918 102.221-102.383 102.4h-0.017zM665.6 601.6c56.482-0.179 102.221-45.918 102.4-102.383v-0.017c-0.179-56.482-45.918-102.221-102.383-102.4h-0.017c-56.482 0.179-102.221 45.918-102.4 102.383v0.017c0.179 56.482 45.918 102.221 102.383 102.4h0.017zM870.4 192h-409.6v51.2c0 68.096 136.704 102.4 204.8 102.4s204.8-34.304 204.8-102.4z" />
<glyph unicode="&#xe904;" glyph-name="analytics" d="M717.036 753.822l116.697-116.775-248.714-248.714-203.855 203.894-377.698-378.092 71.877-71.877 305.822 305.743 203.855-203.855 321.103 320.591 116.736-116.736v305.822z" />
<glyph unicode="&#xe905;" glyph-name="back" d="M1024 504.911h-806.124l203.658 204.209-80.187 80.226-341.346-341.346 341.346-341.307 80.187 80.187-203.658 204.249h806.124z" />
<glyph unicode="&#xe906;" glyph-name="become_an_affiliate" horiz-adv-x="1063" d="M422.636 158.641l-88.182 82.156h-142.769v406.213h54.902c0.112-0.001 0.245-0.002 0.378-0.002 11.729 0 21.962 6.409 27.386 15.916l0.081 0.155 27.806 51.87c16.528 28.944 47.202 48.138 82.359 48.138 0.483 0 0.964-0.004 1.445-0.011l-0.073 0.001h241.664c0.311 0.012 0.677 0.018 1.044 0.018 16.237 0 29.47-12.86 30.069-28.951l0.002-0.055c-0.191-21.177-5.32-41.111-14.29-58.767l0.347 0.754h-134.341c-0.522 0.008-1.137 0.012-1.754 0.012-46.84 0-87.7-25.609-109.34-63.59l-0.325-0.62-109.529-204.209c-1.934-3.736-3.069-8.155-3.069-12.84 0-12.058 7.515-22.36 18.117-26.479l0.194-0.066c31.675-16.604 69.198-26.347 108.996-26.347 4.302 0 8.577 0.114 12.823 0.339l-0.593-0.025c65.817 5.168 121.729 43.18 151.805 97.487l0.495 0.974 1.772 3.348h21.78l221.105-206.1c-10.901-10.588-24.455-18.503-39.567-22.653l-0.644-0.151-265.886-77.863c-8.384-2.698-18.028-4.254-28.036-4.254-0.044 0-0.087 0-0.13 0h0.007c-0.129-0.001-0.281-0.001-0.433-0.001-25.344 0-48.416 9.731-65.682 25.661l0.066-0.060zM917.11 248.674v389.908h95.468c0.462 0.026 1.003 0.040 1.547 0.040 15.748 0 28.625-12.291 29.563-27.803l0.004-0.083v-334.178c-0.941-15.595-13.819-27.885-29.567-27.885-0.544 0-1.085 0.015-1.622 0.044l0.075-0.003zM50.649 248.674c-0.462-0.026-1.003-0.040-1.547-0.040-15.748 0-28.625 12.291-29.563 27.803l-0.004 0.083v334.178c0.941 15.595 13.819 27.885 29.567 27.885 0.544 0 1.085-0.015 1.622-0.044l-0.075 0.003h95.429v-389.908zM637.204 482.225c-11.694 9.943-26.968 15.991-43.655 15.991-0.132 0-0.265 0-0.397-0.001h-60.238l-20.48-35.919c-22.592-36.55-62.444-60.539-107.9-60.539-1.182 0-2.361 0.016-3.535 0.048l0.173-0.004c-0.078 0-0.171 0-0.264 0-17.823 0-34.856 3.383-50.492 9.541l0.935-0.324 94.759 166.242c11.341 18.234 31.269 30.192 53.991 30.192 0.611 0 1.221-0.009 1.828-0.026l-0.089 0.002h366.277v-327.601z" />
<glyph unicode="&#xe907;" glyph-name="close" d="M1024 856.891l-103.148 103.109-408.852-408.852-408.852 408.852-103.148-103.109 408.852-408.891-408.852-408.852 103.148-103.148 408.852 408.891 408.852-408.891 103.148 103.148-408.852 408.852z" />
<glyph unicode="&#xe908;" glyph-name="contacts" d="M853.346 960h-682.693v-85.307h682.693zM170.654-64h682.693v85.346h-682.693zM853.346 789.346h-682.693c-47.065-0.156-85.173-38.279-85.307-85.334v-512.013c0.156-47.051 38.256-85.151 85.292-85.307h682.708c47.051 0.156 85.151 38.256 85.307 85.292v512.015c-0.134 47.068-38.242 85.19-85.292 85.346h-0.015zM512 672.020c52.986-0.090 95.913-43.030 95.98-96.013v-0.007c-0.090-52.972-43.008-95.891-95.972-95.98h-0.009c-52.98 0.089-95.908 43.003-96.020 95.969v0.011c0.090 52.994 43.026 95.93 96.011 96.020h0.008zM725.346 234.85h-426.693v64c0 71.247 142.1 106.654 213.346 106.654s213.346-35.446 213.346-106.654z" />
<glyph unicode="&#xe909;" glyph-name="copy" d="M721.447 960h-558.553c-51.345-0.134-92.932-41.721-93.066-93.053v-651.671h93.066v651.658h558.553zM674.895 773.829l279.276-279.276v-465.644c-0.134-51.353-41.716-92.949-93.051-93.105h-512.488c-51.203 0.201-92.633 41.756-92.633 92.986 0 0.042 0 0.084 0 0.125v-0.007l0.473 651.618c0 0.035 0 0.077 0 0.119 0 51.231 41.43 92.785 92.614 92.986h0.019zM628.382 448h256l-256 256z" />
<glyph unicode="&#xe90a;" glyph-name="credit_card" horiz-adv-x="1109" d="M998.4 874.667h-887.467c-0.090 0-0.196 0-0.302 0-60.796 0-110.080-49.284-110.080-110.080 0-0.3 0.001-0.6 0.004-0.9v0.046l-0.555-665.6c0-0.114-0.001-0.249-0.001-0.385 0-61.055 49.495-110.549 110.549-110.549 0.135 0 0.27 0 0.405 0.001h887.446c0.114 0 0.249-0.001 0.385-0.001 61.055 0 110.549 49.495 110.549 110.549 0 0.135 0 0.27-0.001 0.405v-0.021 665.6c0 0.114 0.001 0.249 0.001 0.385 0 61.055-49.495 110.549-110.549 110.549-0.135 0-0.27 0-0.405-0.001h0.021zM998.4 98.133h-887.467v332.8h887.467zM998.4 652.8h-887.467v110.933h887.467z" />
<glyph unicode="&#xe90b;" glyph-name="date_time" d="M679.463 852.362h-43.047v86.134h-86.134v-86.134h-339.732v86.134h-86.134v-86.134h-38.282c-0.105 0-0.23 0.001-0.355 0.001-47.375 0-85.78-38.405-85.78-85.78 0-0.125 0-0.25 0.001-0.374v0.019-598.134c0-0.105-0.001-0.23-0.001-0.355 0-47.375 38.405-85.78 85.78-85.78 0.125 0 0.25 0 0.374 0.001h382.799c-12.828 24.473-24.251 53.067-32.73 82.9l-0.786 3.234h-349.302v473.718h598.134v-90.939c15.601 3.18 33.533 5 51.89 5 3.622 0 7.227-0.071 10.814-0.211l-0.516 0.016h23.946v210.55c-3.787 47.634-42.824 85.004-90.829 86.132l-0.11 0.002zM756.185 373.642h-43.323v-162.698l143.557-86.134 19.141 33.516-124.416 71.759v143.557zM765.598 512.591h-23.906c-22.355-0.505-43.703-3.966-63.937-10.009l1.71 0.438c-121.434-30.824-209.933-138.905-210.511-267.75v-0.065c0.909-24.196 4.346-47.151 10.062-69.187l-0.492 2.233c9.538-32.763 22.574-61.355 39.073-87.546l-0.83 1.412c48.577-75.29 132.039-124.43 226.977-124.43 0.954 0 1.907 0.005 2.859 0.015l-0.145-0.001c0.243-0.001 0.531-0.001 0.819-0.001 151.38 0 274.374 121.54 276.722 272.361l0.003 0.221c-1.107 147.297-113.512 267.997-257.218 282.214l-1.184 0.095zM746.457 38.873c-108.59 1.103-196.194 89.388-196.194 198.134 0 0.959 0.007 1.916 0.020 2.872l-0.002-0.145c0.423 108.174 88.001 195.751 196.134 196.175h0.041c109.223-0.185 198.027-87.347 200.856-195.912l0.005-0.262c-4.175-109.213-91.649-196.686-200.474-200.85l-0.388-0.012z" />
<glyph unicode="&#xe90c;" glyph-name="delete" d="M170.654 49.782c0.245-62.741 51.041-113.537 113.759-113.782h455.152c62.741 0.245 113.537 51.041 113.782 113.759v682.677h-682.693zM910.218 903.089h-199.089l-56.911 56.911h-284.436l-56.911-56.911h-199.089v-113.743h796.436z" />
<glyph unicode="&#xe90d;" glyph-name="document" d="M409.6 857.246h-306.924c-56.254-0.224-101.77-45.878-101.77-102.163 0-0.083 0-0.167 0-0.25v0.013l-0.512-613.849c0-56.554 45.846-102.4 102.4-102.4v0h818.452c56.554 0 102.4 45.846 102.4 102.4v0 511.567c-0.112 56.509-45.891 102.288-102.389 102.4h-409.257z" />
<glyph unicode="&#xe90e;" glyph-name="document_tracking" d="M614.4 960h-409.6c-56.333-0.291-101.888-46.025-101.888-102.399 0 0 0-0.001 0-0.001v0l-0.512-819.2c0 0 0-0.001 0-0.001 0-56.374 45.555-102.108 101.86-102.399h614.94c56.482 0.179 102.221 45.918 102.4 102.383v614.417zM716.8 140.8h-409.6v102.4h409.6zM716.8 345.6h-409.6v102.4h409.6zM563.2 601.6v281.6l281.6-281.6z" />
<glyph unicode="&#xe90f;" glyph-name="down_arrow" d="M903.759 763.983l-391.483-390.617-391.483 390.617-120.241-120.241 511.724-511.764 511.724 511.764z" />
<glyph unicode="&#xe910;" glyph-name="download" d="M933.415 598.843h-240.798v361.157h-361.157v-361.157h-240.876l421.415-421.415zM90.585 57.108v-120.399h842.831v120.399z" />
<glyph unicode="&#xe911;" glyph-name="edit" d="M0 149.386v-213.307h213.268l629.169 629.051-213.307 213.307zM1007.262 730.073c10.277 10.254 16.635 24.431 16.635 40.094s-6.358 29.84-16.633 40.092l-133.121 133.121c-10.254 10.277-24.431 16.635-40.094 16.635s-29.84-6.358-40.092-16.633l-104.095-104.095 213.307-213.307z" />
<glyph unicode="&#xe912;" glyph-name="email" d="M921.6 857.6h-819.2c-56.333-0.291-101.888-46.025-101.888-102.399 0 0 0-0.001 0-0.001v0l-0.512-614.4c0.179-56.482 45.918-102.221 102.383-102.4h819.217c56.482 0.179 102.221 45.918 102.4 102.383v614.417c-0.179 56.482-45.918 102.221-102.383 102.4h-0.017zM921.6 652.8l-409.6-256-409.6 256v102.4l409.6-256 409.6 256z" />
<glyph unicode="&#xe913;" glyph-name="email_campaigns" d="M884.382 587.658h-744.763c-51.35-0.156-92.932-41.752-93.066-93.092v-465.46c0.134-51.353 41.716-92.949 93.051-93.105h744.778c51.35 0.156 92.932 41.752 93.066 93.092v465.46c-0.134 51.353-41.716 92.949-93.051 93.105h-0.015zM884.382 401.447l-372.382-232.606-372.382 232.724v93.105l372.382-232.842 372.382 232.724zM139.618 773.829h744.724v-93.105h-744.724v93.105zM232.724 960h558.553v-93.105h-558.553v93.105z" />
<glyph unicode="&#xe914;" glyph-name="email_reports" d="M1024 634.171c-0.156-51.358-41.748-92.949-93.090-93.105h-0.015c-0.326-0.005-0.711-0.008-1.097-0.008-8.034 0-15.788 1.197-23.094 3.423l0.56-0.147-165.73-165.415c2.080-6.879 3.278-14.784 3.278-22.969 0-0.426-0.003-0.852-0.010-1.277l0.001 0.064c-0.156-51.358-41.748-92.949-93.090-93.105h-0.015c-51.35 0.156-92.932 41.752-93.066 93.092v0.013c-0.008 0.412-0.012 0.897-0.012 1.383 0 8.126 1.199 15.972 3.429 23.371l-0.148-0.573-118.705 118.705c-6.891-2.080-14.81-3.278-23.009-3.278-0.426 0-0.852 0.003-1.277 0.010l0.064-0.001c-0.353-0.005-0.769-0.009-1.186-0.009-8.194 0-16.109 1.197-23.579 3.427l0.583-0.149-211.85-212.047c2.055-6.713 3.239-14.43 3.239-22.423 0-0.425-0.003-0.848-0.010-1.271l0.001 0.064c-0.134-51.345-41.721-92.932-93.053-93.066h-0.013c-51.353 0.134-92.949 41.716-93.105 93.051v0.015c0.156 51.358 41.748 92.949 93.090 93.105h0.015c0.326 0.005 0.711 0.008 1.097 0.008 8.034 0 15.788-1.197 23.094-3.423l-0.56 0.147 212.244 211.771c-2.056 6.866-3.24 14.756-3.24 22.922 0 0.457 0.004 0.913 0.011 1.368l-0.001-0.069c0.134 51.353 41.716 92.949 93.051 93.105h0.015c51.447-0.112 93.117-41.81 93.184-93.256v-0.006c0.005-0.348 0.008-0.759 0.008-1.17 0-8.213-1.197-16.147-3.427-23.636l0.15 0.585 118.705-118.666c6.887 2.080 14.802 3.277 22.996 3.277 0.417 0 0.833-0.003 1.249-0.009l-0.063 0.001c0.361 0.006 0.786 0.009 1.213 0.009 8.199 0 16.118-1.198 23.592-3.427l-0.583 0.149 165.218 165.691c-2.055 6.713-3.239 14.43-3.239 22.423 0 0.425 0.003 0.848 0.010 1.271l-0.001-0.064c0.134 51.345 41.721 92.932 93.053 93.066h0.013c51.311-0.134 92.882-41.649 93.105-92.926v-0.021z" />
<glyph unicode="&#xe915;" glyph-name="email_sequence" horiz-adv-x="993" d="M940.086 558.574v401.426l-135.591-135.362c-83.483 65.254-189.943 104.634-305.6 104.634-275.366 0-498.594-223.228-498.594-498.594 0-115.715 39.419-222.223 105.561-306.828l-0.827 1.099 89.070 89.070c-43.438 60.293-69.472 135.646-69.472 217.079 0 206.493 167.395 373.888 373.888 373.888 81.423 0 156.768-26.028 218.167-70.217l-1.111 0.761-172.525-172.525zM892.916 124.949c52.617 67.287 88.469 150.076 99.932 240.472l0.253 2.446h-125.317c-9.826-58.539-32.37-110.519-64.732-154.881l0.718 1.032zM282.794 126.286l-89.108-89.070c67.219-52.969 149.988-89.161 240.425-100.95l2.493-0.265v127.188c-58.48 9.499-110.486 31.76-154.909 63.865l1.060-0.729zM561.233 61.355l0.382-124.897c92.863 11.617 175.675 47.501 243.994 101.035l-1.075-0.812-89.070 89.070c-43.439-31.699-95.494-54.365-151.97-64.122l-2.184-0.312z" />
<glyph unicode="&#xe916;" glyph-name="email_tracking" d="M1023.015 575.842c0.002 0.213 0.003 0.466 0.003 0.718 0 36.262-19.039 68.077-47.666 85.995l-0.425 0.248-462.927 271.124-462.927-271.124c-29.348-18.21-48.601-50.256-48.601-86.798 0-0.057 0-0.114 0-0.172v0.009-511.488c0.134-56.5 45.9-102.266 102.387-102.4h818.347c56.5 0.134 102.266 45.9 102.4 102.387v0.013zM512 320.118l-422.518 263.877 422.518 247.611 422.518-247.572z" />
<glyph unicode="&#xe917;" glyph-name="failed" d="M512 960c-282.77 0-512-229.23-512-512v0c0-282.77 229.23-512 512-512v0c282.77 0 512 229.23 512 512v0c0 282.77-229.23 512-512 512v0zM563.2 192h-102.4v102.4h102.4zM563.2 396.8h-102.4v307.2h102.4z" />
<glyph unicode="&#xe918;" glyph-name="feeds" d="M0 652.8h219.412v-716.8h-219.412zM409.6 960h204.8v-1024h-204.8zM819.2 374.823h204.8v-438.823h-204.8z" />
<glyph unicode="&#xe919;" glyph-name="filter" d="M387.23 516.096c6.332-6.498 10.257-15.368 10.319-25.155v-533.004l228.903 195.702v337.29c0.062 9.799 3.986 18.669 10.326 25.175l-0.008-0.008 387.23 421.967h-1024z" />
<glyph unicode="&#xe91a;" glyph-name="full_view" d="M682.667 960l130.859-130.859-164.437-163.243 80.768-80.768 163.285 164.395 130.859-130.859v341.333zM0 618.667l130.859 130.859 163.285-164.395 80.768 80.768-164.437 163.243 130.859 130.859h-341.333zM341.333-64l-130.859 130.859 164.395 163.285-80.768 80.768-163.243-164.437-130.859 130.859v-341.333zM1024 277.333l-130.859-130.859-163.285 164.395-80.768-80.768 164.395-163.285-130.816-130.816h341.333z" />
<glyph unicode="&#xe91b;" glyph-name="help_icon" d="M512 960c-282.77 0-512-229.23-512-512s229.23-512 512-512c282.77 0 512 229.23 512 512v0c0 282.77-229.23 512-512 512v0zM563.2 89.6h-102.4v102.4h102.4zM669.184 486.4l-46.080-47.262c-37.069-32.145-60.376-79.312-60.376-131.923 0-4.51 0.171-8.98 0.508-13.403l-0.036 0.588h-102.4v25.6c0.107 56.547 22.969 107.733 59.914 144.906l-0.010-0.010 63.488 64.512c18.646 18.2 30.209 43.584 30.209 71.668 0 0.184 0 0.369-0.001 0.553v-0.028c0 56.554-45.846 102.4-102.4 102.4s-102.4-45.846-102.4-102.4v0h-102.4c0 113.108 91.692 204.8 204.8 204.8s204.8-91.692 204.8-204.8v0c0-0.028 0-0.061 0-0.095 0-44.94-18.194-85.631-47.619-115.108l0.003 0.003z" />
<glyph unicode="&#xe91c;" glyph-name="information" d="M512 960c-282.77 0-512-229.23-512-512v0c0-282.77 229.23-512 512-512v0c282.77 0 512 229.23 512 512v0c0 282.77-229.23 512-512 512v0zM563.2 192h-102.4v307.2h102.4zM563.2 601.6h-102.4v102.4h102.4z" />
<glyph unicode="&#xe91d;" glyph-name="left_arrow" d="M828.18 839.68l-390.853-391.68 390.853-391.68-120.32-120.32-512 512 512 512z" />
<glyph unicode="&#xe91e;" glyph-name="location_tracking" d="M512 874.667c-165.12 0-298.667-133.547-298.667-298.667 0-224 298.667-554.667 298.667-554.667s298.667 330.667 298.667 554.667c0 165.12-133.547 298.667-298.667 298.667zM512 469.333c-58.88 0-106.667 47.787-106.667 106.667s47.787 106.667 106.667 106.667 106.667-47.787 106.667-106.667-47.787-106.667-106.667-106.667z" />
<glyph unicode="&#xe91f;" glyph-name="logout_icon" d="M403.328 243.755l80.213-80.213 284.459 284.459-284.459 284.459-80.213-80.213 146.773-147.328h-550.101v-113.792h550.101zM910.208 960h-796.416c-0.013 0-0.028 0-0.043 0-62.822 0-113.749-50.927-113.749-113.749 0-0.015 0-0.030 0-0.045v0.002-227.541h113.792v227.541h796.416v-796.416h-796.416v227.541h-113.792v-227.541c0-0.013 0-0.028 0-0.043 0-62.822 50.927-113.749 113.749-113.749 0.015 0 0.030 0 0.045 0h796.414c62.768 0.193 113.599 51.024 113.792 113.773v796.435c-0.193 62.768-51.024 113.599-113.773 113.792h-0.019z" />
<glyph unicode="&#xe920;" glyph-name="mail_bounce" horiz-adv-x="1063" d="M575.882 230.439c-0.001 0.199-0.001 0.435-0.001 0.671 0 129.357 104.618 234.278 233.859 234.77h0.047c129.271-0.514 233.867-105.427 233.867-234.77 0-0.236 0-0.472-0.001-0.708v0.036c0.001-0.188 0.001-0.41 0.001-0.632 0-129.335-104.6-234.239-233.82-234.731h-0.047c-129.283 0.47-233.906 105.382-233.906 234.731 0 0.222 0 0.444 0.001 0.666v-0.035zM786.393 112.758h46.789v47.262h-46.789zM786.393 206.927h46.789v141.194h-46.789zM104.527 217.954c-46.915 0.29-84.834 38.389-84.834 85.345 0 0.014 0 0.029 0 0.043v-0.002l0.433 512.197c-0.001 0.129-0.001 0.282-0.001 0.435 0 46.725 37.722 84.639 84.373 84.951h678.745c46.915-0.29 84.834-38.389 84.834-85.345 0-0.014 0-0.029 0-0.043v0.002-308.854c-17.502 3.914-37.608 6.166-58.237 6.183h-0.012c-155.167-0.671-280.695-126.613-280.695-281.873 0-0.208 0-0.417 0.001-0.625v0.032c0-4.175 0.473-8.31 0.591-12.485zM104.527 730.191l339.338-213.425 339.377 213.425v85.346l-339.377-213.425-339.338 213.425z" />
<glyph unicode="&#xe921;" glyph-name="menu" d="M0 106.693h1024v113.782h-1024zM0 391.129h1024v113.782h-1024zM0 789.346v-113.782h1024v113.703z" />
<glyph unicode="&#xe922;" glyph-name="more_options" d="M512 704c70.603 0.223 127.777 57.397 128 127.979v0.021c-0.201 70.611-57.389 127.799-127.981 128h-0.019c-70.611-0.201-127.799-57.389-128-127.981v-0.019c0.223-70.603 57.397-127.777 127.979-128h0.021zM512 576c-70.611-0.201-127.799-57.389-128-127.981v-0.019c0.223-70.603 57.397-127.777 127.979-128h0.021c70.603 0.223 127.777 57.397 128 127.979v0.021c-0.201 70.611-57.389 127.799-127.981 128h-0.019zM512 192c-70.611-0.201-127.799-57.389-128-127.981v-0.019c0.223-70.603 57.397-127.777 127.979-128h0.021c70.603 0.223 127.777 57.397 128 127.979v0.021c-0.201 70.611-57.389 127.799-127.981 128h-0.019z" />
<glyph unicode="&#xe923;" glyph-name="move" d="M921.088 754.846h-409.088l-102.4 102.4h-306.806c-56.554 0-102.4-45.846-102.4-102.4v0-613.573c0-56.554 45.846-102.4 102.4-102.4v0h818.294c56.554 0 102.4 45.846 102.4 102.4v0 511.37c-0.112 56.469-45.915 102.203-102.4 102.203 0 0 0 0 0 0v0zM747.244 228.116v86.922h-168.763v168.881h168.763v81.841l168.724-168.763z" />
<glyph unicode="&#xe924;" glyph-name="my_proifle" d="M512 960c-282.77 0-512-229.23-512-512v0c0-282.77 229.23-512 512-512v0c282.77 0 512 229.23 512 512v0c0 282.77-229.23 512-512 512v0zM512 806.4c84.831 0 153.6-68.769 153.6-153.6v0c0-84.831-68.769-153.6-153.6-153.6v0c-84.831 0-153.6 68.769-153.6 153.6v0c0 84.831 68.769 153.6 153.6 153.6v0zM512 79.36c-127.68 0.007-240.198 64.917-306.361 163.536l-0.839 1.328c1.536 101.888 204.8 157.538 307.2 157.538s305.664-55.808 307.2-157.538c-67.002-99.947-179.52-164.857-307.199-164.864h-0.001z" />
<glyph unicode="&#xe925;" glyph-name="notification" d="M512-63.212c57.852 0.179 104.703 47.029 104.881 104.864v0.017h-209.762c0-0.012 0-0.026 0-0.039 0-57.903 46.939-104.842 104.842-104.842 0.014 0 0.028 0 0.042 0h-0.002zM826.604 251.392v262.183c0 160.965-85.977 295.7-235.953 331.382v35.446c0 0.070 0 0.153 0 0.237 0 43.373-35.16 78.533-78.533 78.533-0.083 0-0.166 0-0.249 0h0.013c-0.070 0-0.153 0-0.237 0-43.373 0-78.533-35.16-78.533-78.533 0-0.083 0-0.166 0-0.249v0.013-35.446c-150.489-35.682-235.953-169.905-235.953-331.382v-262.183l-104.881-104.881v-52.421h838.892v52.421z" />
<glyph unicode="&#xe926;" glyph-name="notifications_off" d="M905.492 110.001l-772.844 797.617-66.639-66.639 146.944-146.905v-0.512c-26.479-50.867-42.011-111.077-42.011-174.915 0-1.59 0.010-3.177 0.029-4.762l-0.002 0.241v-262.341l-104.96-104.921v-52.618h720.384l104.96-104.921 66.639 66.639zM485.77-63.527c0.141-0.001 0.307-0.001 0.473-0.001 57.729 0 104.527 46.798 104.527 104.527 0 0.139 0 0.278-0.001 0.416v-0.021h-209.92c0-0.117-0.001-0.256-0.001-0.395 0-57.729 46.798-104.527 104.527-104.527 0.139 0 0.277 0 0.416 0.001h-0.021zM800.571 320.512v192.985c0 161.477-86.055 295.897-236.111 331.579v35.682c0 43.503-35.266 78.769-78.769 78.769v0c-43.503 0-78.769-35.266-78.769-78.769v0-35.682c-9.041-2.090-16.416-4.255-23.622-6.78l1.567 0.478c-5.238-1.575-10.476-3.663-15.754-5.75h-0.354c-0.512 0-0.512 0-1.024-0.551-12.091-4.726-24.143-10.476-35.682-16.266 0 0-0.551 0-0.551-0.512z" />
<glyph unicode="&#xe927;" glyph-name="performance" d="M200.034 705.378h176.601v-594.196h-176.601zM529.684 960h164.825v-848.817h-164.825zM859.333 474.978h164.825v-363.796h-164.825zM1024.158-64h-1024v1024h80.896v-943.34h943.104z" />
<glyph unicode="&#xe928;" glyph-name="referesh" horiz-adv-x="1408" d="M1152.197 704l-256-256h192.039c-0.202-211.98-172.013-383.764-383.985-383.921h-0.015c-0.384-0.001-0.839-0.002-1.295-0.002-65.174 0-126.474 16.585-179.91 45.765l1.965-0.982-93.42-93.42c77.141-49.801 171.387-79.399 272.546-79.399 0.040 0 0.080 0 0.12 0h-0.006c282.77 0 512 229.23 512 512v0h191.961zM320.236 448c0.157 212.014 171.986 383.843 383.985 384h0.015c0.332 0.001 0.726 0.002 1.119 0.002 65.14 0 126.406-16.585 179.806-45.764l-1.962 0.982 93.42 93.42c-77.141 49.801-171.387 79.399-272.546 79.399-0.026 0-0.052 0-0.078 0h0.004c-282.77 0-512-229.23-512-512v0h-192.079l256-256 256 256z" />
<glyph unicode="&#xe929;" glyph-name="reply" d="M397.036 646.538v226.895l-397.036-397.154 397.036-396.958v232.369c283.569 0 482.146-90.585 623.97-289.28-56.753 283.806-226.895 567.414-623.97 624.128z" />
<glyph unicode="&#xe92a;" glyph-name="right_arrow" d="M195.86 56.32l390.814 391.68-390.814 391.68 120.281 120.32 512-512-512-512z" />
<glyph unicode="&#xe92b;" glyph-name="sent" d="M2.521 11.54l1018.25 436.618-1018.25 436.46-0.512-339.574 727.71-97.044-727.71-97.004z" />
<glyph unicode="&#xe92c;" glyph-name="settings" d="M903.68 398.1c2.010 14.898 3.209 32.208 3.308 49.779l0.001 0.121c0.001 0.269 0.001 0.588 0.001 0.906 0 17.3-1.433 34.266-4.186 50.785l0.247-1.79 111.301 84.48c5.952 4.796 9.727 12.085 9.727 20.256 0 4.543-1.167 8.813-3.218 12.527l0.068-0.134-105.314 177.231c-4.838 7.899-13.422 13.089-23.217 13.089-3.24 0-6.347-0.568-9.228-1.609l0.189 0.060-131.033-51.2c-25.669 19.41-54.998 36.166-86.377 48.929l-2.593 0.932-19.692 135.68c-2.096 12.477-12.817 21.866-25.731 21.866-0.217 0-0.434-0.003-0.649-0.008l0.032 0.001h-210.668c-0.159 0.004-0.347 0.006-0.535 0.006-12.753 0-23.312-9.398-25.127-21.647l-0.017-0.139-19.692-135.68c-33.941-13.825-63.232-30.584-89.91-50.633l1.019 0.733-131.033 51.2c-2.786 1.092-6.012 1.725-9.385 1.725-9.729 0-18.228-5.265-22.803-13.101l-0.068-0.125-105.314-177.231c-2.288-3.638-3.646-8.062-3.646-12.803 0-8.142 4.004-15.348 10.15-19.758l0.073-0.050 111.301-84.48c-2.738-14.908-4.42-32.185-4.645-49.812l-0.002-0.206c0-0.126 0-0.275 0-0.424 0-17.469 1.432-34.603 4.186-51.292l-0.247 1.816-111.262-84.519c-5.943-4.796-9.713-12.080-9.713-20.244 0-4.532 1.161-8.792 3.203-12.5l-0.068 0.134 105.314-177.231c4.832-7.885 13.401-13.065 23.181-13.065 3.254 0 6.373 0.573 9.264 1.625l-0.188-0.060 131.033 51.2c25.637-19.408 54.925-36.174 86.258-48.964l2.594-0.936 19.692-135.641c2.336-12.47 13.138-21.781 26.114-21.781 0.082 0 0.165 0 0.247 0.001h210.655c0.282-0.011 0.613-0.018 0.946-0.018 12.664 0 23.123 9.443 24.719 21.672l0.013 0.126 19.692 135.68c33.941 13.825 63.232 30.584 89.91 50.633l-1.019-0.733 131.033-51.2c2.786-1.092 6.012-1.725 9.385-1.725 9.729 0 18.228 5.265 22.803 13.101l0.068 0.125 105.314 177.231c2.288 3.638 3.646 8.062 3.646 12.803 0 8.142-4.004 15.348-10.15 19.758l-0.073 0.050zM511.961 256c-0.629-0.007-1.372-0.011-2.117-0.011-106.722 0-193.46 85.564-195.355 191.834l-0.002 0.178c1.898 106.447 88.635 192.011 195.358 192.011 0.744 0 1.487-0.004 2.23-0.012l-0.113 0.001c0.641 0.008 1.398 0.012 2.156 0.012 106.723 0 193.46-85.564 195.355-191.834l0.002-0.178c-1.898-106.447-88.635-192.011-195.358-192.011-0.744 0-1.487 0.004-2.23 0.012l0.113-0.001z" />
<glyph unicode="&#xe92d;" glyph-name="share" d="M820.421 236.19c-38.909-0.117-74.305-15.064-100.852-39.481l0.107 0.097-366.513 213.346c2.681 10.723 4.346 23.101 4.605 35.823l0.003 0.175c-0.262 12.883-1.927 25.246-4.849 37.116l0.241-1.157 362.338 211.298c27.326-25.737 64.229-41.572 104.83-41.63h0.011c0.070 0 0.153 0 0.236 0 85.048 0 153.994 68.945 153.994 153.994 0 0.069 0 0.139 0 0.208v-0.011c0 85.070-68.963 154.033-154.033 154.033-0.042 0-0.083 0-0.125 0h0.007c-0.059 0-0.128 0-0.197 0-85.048 0-153.994-68.945-153.994-153.994 0-0.083 0-0.166 0-0.249v0.013c0.262-12.883 1.927-25.246 4.849-37.116l-0.241 1.157-362.338-211.298c-27.326 25.737-64.229 41.572-104.83 41.63h-0.011c-0.070 0-0.153 0-0.236 0-85.048 0-153.994-68.945-153.994-153.994 0-0.069 0-0.139 0-0.208v0.011c0-0.058 0-0.128 0-0.197 0-85.070 68.963-154.033 154.033-154.033 0.069 0 0.139 0 0.208 0h-0.011c40.609 0.083 77.505 15.912 104.921 41.703l-0.079-0.074 366.001-213.819c-2.486-10.038-3.921-21.566-3.938-33.426v-0.012c0.112-82.767 67.11-149.849 149.835-150.095h0.024c82.867 0.090 150.022 67.231 150.134 150.084v0.011c-0.090 82.873-67.258 150.028-150.128 150.095h-0.006z" />
<glyph unicode="&#xe92e;" glyph-name="shared" d="M232.724 505.029c-55.598 3.002-99.545 48.816-99.545 104.895 0 1.893 0.050 3.775 0.149 5.643l-0.011-0.261c-0.088 1.607-0.138 3.489-0.138 5.382 0 56.079 43.946 101.893 99.279 104.884l0.266 0.011c55.762-2.989 99.846-48.932 99.846-105.172 0-1.795-0.045-3.58-0.134-5.354l0.010 0.249c0.079-1.524 0.124-3.309 0.124-5.105 0-56.24-44.084-102.184-99.581-105.161l-0.265-0.011zM232.724 431.458c9.649 0 20.598-0.748 32.256-1.851-39.417-28.954-64.88-74.908-65.496-126.839l-0.001-0.098v-91.963h-199.483v91.766c0 85.74 155.254 128.788 232.724 128.788zM782.809 505.029c57.348 1.953 103.095 48.912 103.095 106.556 0 1.308-0.024 2.611-0.070 3.909l0.005-0.188c0.041 1.109 0.065 2.412 0.065 3.721 0 57.644-45.747 104.603-102.917 106.551l-0.178 0.005c-57.496-1.958-103.361-49.039-103.361-106.832 0-1.212 0.020-2.418 0.060-3.62l-0.005 0.175c-0.035-1.027-0.056-2.234-0.056-3.445 0-57.793 45.866-104.873 103.183-106.827l0.179-0.005zM507.116 505.029c57.365 1.932 103.134 48.9 103.134 106.557 0 1.308-0.024 2.611-0.070 3.907l0.005-0.188c0.041 1.109 0.065 2.412 0.065 3.721 0 57.644-45.747 104.603-102.917 106.551l-0.178 0.005c-57.513-1.937-103.401-49.026-103.401-106.833 0-1.211 0.020-2.418 0.060-3.619l-0.005 0.175c-0.035-1.027-0.055-2.233-0.055-3.444 0-57.807 45.888-104.896 103.224-106.828l0.177-0.005zM507.116 431.458c-80.226-0.197-241.152-43.244-241.152-128.985v-91.963h482.383v91.963c0 85.74-160.886 128.788-241.191 128.788zM782.809 431.458c-10.004 0-21.346-0.748-33.438-1.851 40.642-28.344 67.122-74.558 67.976-127.002l0.002-0.131v-91.963h206.73v91.963c-0.039 85.74-160.965 128.788-241.27 128.788z" />
<glyph unicode="&#xe92f;" glyph-name="mark_default" d="M747.008 674.304l-337.408-337.408-183.808 183.296-72.192-72.192 256-256 409.6 409.6zM512 960c-282.77 0-512-229.23-512-512s229.23-512 512-512c282.77 0 512 229.23 512 512v0c0 282.77-229.23 512-512 512v0zM512 38.4c-226.216 0-409.6 183.384-409.6 409.6s183.384 409.6 409.6 409.6c226.216 0 409.6-183.384 409.6-409.6v0c0-226.216-183.384-409.6-409.6-409.6v0z" />
<glyph unicode="&#xe930;" glyph-name="stop_tracking" d="M512.551 704c128.49-0.045 232.639-104.194 232.684-232.68v-0.004c-0.020-30.719-6.169-59.996-17.29-86.682l0.552 1.494 135.877-135.877c69.715 58.404 124.238 132.651 158.311 217.327l1.315 3.699c-82.595 206.047-280.599 348.934-511.988 349.026h-0.012c-66.419-0.004-130.048-11.944-188.86-33.792l3.753 1.221 100.51-100.549c25.175 10.593 54.434 16.769 85.131 16.817h0.019zM47.262 830.976l127.449-127.488c-76.699-59.997-136.351-138.397-172.726-228.675l-1.315-3.694c82.604-206.040 280.603-348.923 511.987-349.026h0.013c0.187 0 0.409 0 0.63 0 73.201 0 143.049 14.35 206.887 40.391l-3.662-1.321 19.692-19.692 136.35-135.877 59.077 59.077-825.305 825.423zM304.561 573.637l72.113-72.113c-2.294-9.064-3.64-19.484-3.702-30.208v-0.040c0-0.070 0-0.153 0-0.236 0-76.979 62.404-139.382 139.382-139.382 0.069 0 0.139 0 0.208 0h-0.011c10.798 0.125 21.204 1.554 31.146 4.137l-0.898-0.198 72.153-72.153c-29.81-15.34-65.018-24.426-102.326-24.654h-0.074c-128.473 0.067-232.6 104.208-232.645 232.68v0.004c0.262 37.302 9.344 72.423 25.26 103.462l-0.605-1.299zM505.108 609.95l146.59-146.59 0.945 7.444c0 0.058 0 0.128 0 0.197 0 77-62.421 139.422-139.422 139.422-0.069 0-0.139 0-0.208 0h0.011z" />
<glyph unicode="&#xe931;" glyph-name="subscription_billing" horiz-adv-x="1081" d="M1024 106.654v-56.871c-0.245-62.741-51.041-113.537-113.759-113.782h-796.459c-0.012 0-0.026 0-0.039 0-62.818 0-113.743 50.924-113.743 113.743 0 0.014 0 0.028 0 0.042v-0.002 796.436c0 0.012 0 0.026 0 0.039 0 62.818 50.924 113.743 113.743 113.743 0.014 0 0.028 0 0.042 0h796.433c62.741-0.245 113.537-51.041 113.782-113.759v-56.894h-512c-0.012 0-0.026 0-0.039 0-62.818 0-113.743-50.924-113.743-113.743 0-0.014 0-0.028 0-0.042v0.002-455.129c0-0.012 0-0.026 0-0.039 0-62.818 50.924-113.743 113.743-113.743 0.014 0 0.028 0 0.042 0h-0.002zM512 220.436h568.871v455.129h-568.871zM739.564 362.654c-0.012 0-0.026 0-0.039 0-47.136 0-85.346 38.211-85.346 85.346s38.211 85.346 85.346 85.346c47.136 0 85.346-38.211 85.346-85.346v0c0-0.035 0-0.077 0-0.118 0-47.070-38.158-85.228-85.228-85.228-0.028 0-0.055 0-0.083 0h0.004z" />
<glyph unicode="&#xe932;" glyph-name="templates" d="M511.449 72.586l-395.422 307.436-86.922-67.623 482.895-375.572 482.895 375.572-87.473 68.135zM512 208.857l482.895 375.572-482.895 375.572-482.895-375.572 87.473-68.135z" />
<glyph unicode="&#xe933;" glyph-name="time" d="M511.488 960c-282.521-0.157-511.488-229.221-511.488-511.764 0-0.083 0-0.166 0-0.25v0.013c0-0.070 0-0.153 0-0.236 0-282.542 228.967-511.606 511.473-511.764h0.015c0.059 0 0.128 0 0.197 0 282.833 0 512.136 229.192 512.315 511.983v0.017c-0.179 282.808-229.482 512-512.315 512-0.069 0-0.138 0-0.207 0h0.010zM512 38.4c-226.216 0-409.6 183.384-409.6 409.6v0c0 226.216 183.384 409.6 409.6 409.6v0c226.216 0 409.6-183.384 409.6-409.6v0c0-226.216-183.384-409.6-409.6-409.6v0zM537.167 699.707h-75.5v-302.041l264.31-158.562 37.77 61.913-226.54 134.42z" />
<glyph unicode="&#xe934;" glyph-name="unshare" d="M256 499.2v-102.4h512v102.4zM512 960c-282.77 0-512-229.23-512-512s229.23-512 512-512c282.77 0 512 229.23 512 512v0c0 282.77-229.23 512-512 512v0zM512 38.4c-226.216 0-409.6 183.384-409.6 409.6s183.384 409.6 409.6 409.6c226.216 0 409.6-183.384 409.6-409.6v0c-0.314-226.090-183.511-409.287-409.57-409.6h-0.030z" />
<glyph unicode="&#xe935;" glyph-name="up_arrow" d="M120.32 131.82l391.68 390.814 391.68-390.814 120.32 120.32-512 512-512-512z" />
<glyph unicode="&#xe936;" glyph-name="views" d="M512 796.751c-231.187-0.134-428.997-142.894-510.215-345.051l-1.313-3.7c82.442-205.918 280.308-348.718 511.527-348.718s429.085 142.8 510.217 345.019l1.311 3.699c-82.53 205.856-280.34 348.617-511.511 348.751h-0.017zM512 215.631c-128.334 0-232.369 104.035-232.369 232.369s104.035 232.369 232.369 232.369c128.334 0 232.369-104.035 232.369-232.369v0c-0.134-128.28-104.089-232.235-232.356-232.369h-0.013zM512 587.658c-77.044 0-139.5-62.456-139.5-139.5s62.456-139.5 139.5-139.5c76.989 0 139.411 62.367 139.5 139.334v0.009c0 0.058 0 0.128 0 0.197 0 76.935-62.368 139.303-139.303 139.303-0.069 0-0.138 0-0.208 0h0.011z" />
<glyph unicode="&#xe937;" glyph-name="watch_video_tutorials" d="M896.354 957.086h-765.834c-70.399-0.223-127.405-57.244-127.606-127.626v-765.853c0.223-70.385 57.221-127.383 127.585-127.606h765.855c70.402 0.201 127.422 57.207 127.645 127.585v765.737c-0.134 70.467-57.189 127.563-127.626 127.764h-0.019zM385.969 159.35v574.385l382.897-287.193z" />
<glyph unicode="&#xe938;" glyph-name="webhook_test_response" d="M568.871 590.218h284.436v113.782h-284.436zM568.871 192h284.436v113.782h-284.436zM910.218-64h-796.436c-62.741 0.245-113.537 51.041-113.782 113.759v796.459c0.245 62.741 51.041 113.537 113.759 113.782h796.459c62.741-0.245 113.537-51.041 113.782-113.759v-796.459c-0.245-62.741-51.041-113.537-113.759-113.782h-0.023zM170.654 504.871h284.436v284.475h-284.436zM227.564 732.436h170.654v-170.654h-170.654zM170.654 106.654h284.436v284.475h-284.436zM227.525 334.218h170.654v-170.654h-170.614z" />
<glyph unicode="&#xe939;" glyph-name="whats_new" d="M558.631 564.382c0-102.841-83.369-186.21-186.21-186.21s-186.21 83.369-186.21 186.21c0 102.841 83.369 186.21 186.21 186.21s186.21-83.369 186.21-186.21zM372.382 285.105c-124.258 0-372.382-62.385-372.382-186.21v-93.105h744.763v93.105c0 123.825-248.084 186.21-372.382 186.21zM733.617 733.814l-78.218-78.769c18.348-25.087 29.358-56.55 29.358-90.585s-11.010-65.498-29.663-91.022l0.305 0.437 78.218-78.769c43.659 43.195 70.694 103.117 70.694 169.354s-27.035 126.158-70.673 169.333l-0.021 0.021zM887.69 890.21l-75.894-75.855c59.98-65.727 96.718-153.56 96.718-249.974s-36.738-184.248-96.98-250.265l0.262 0.291 75.894-75.855c84.182 83.020 136.33 198.335 136.33 325.829s-52.148 242.809-136.278 325.777l-0.052 0.051z" />
<glyph unicode="&#xe93a;" glyph-name="stop_icon" d="M512 960c-282.77 0-512-229.23-512-512s229.23-512 512-512c282.77 0 512 229.23 512 512v0c-0.848 282.428-229.572 511.151-511.918 512h-0.082zM512 38.4c-226.216 0-409.6 183.384-409.6 409.6s183.384 409.6 409.6 409.6c226.216 0 409.6-183.384 409.6-409.6v0c-0.692-225.937-183.663-408.908-409.533-409.6h-0.067zM354.462 605.538h334.769v-334.769h-334.769z" />
<glyph unicode="&#xe93b;" glyph-name="windows" d="M0 483.446v334.769l409.6 55.138v-389.908h-409.6zM476.554 881.231l547.446 78.769v-476.554h-547.446v397.785zM1024 412.554v-476.554l-547.446 78.769v397.785h547.446zM409.6 22.646l-409.6 55.138v334.769h409.6v-389.908z" />
<glyph unicode="&#xe93c;" glyph-name="chrome" d="M259.938 514.954l-149.662 252.062c94.523 118.154 240.246 192.985 401.723 192.985 189.046 0 350.523-102.4 441.108-252.062h-417.477c-7.877 0-15.754 0-23.631 0-122.092 3.938-224.492-82.708-252.062-192.985zM697.108 633.108h295.385c19.692-55.138 31.508-118.154 31.508-185.108 0-279.631-224.492-508.062-508.062-512l208.738 362.338c27.569 43.323 47.262 94.523 47.262 149.662 3.938 74.831-27.569 137.846-74.831 185.108zM326.892 448c0 102.4 82.708 185.108 185.108 185.108s185.108-82.708 185.108-185.108c0-102.4-82.708-185.108-185.108-185.108s-185.108 82.708-185.108 185.108zM582.892 195.938l-145.723-252.062c-248.123 35.446-437.169 248.123-437.169 504.123 0 90.585 23.631 177.231 66.954 252.062l208.738-362.338c43.323-90.585 133.908-149.662 236.308-149.662 23.631-3.938 47.262 0 70.892 7.877z" />
<glyph unicode="&#xe93d;" glyph-name="checkmark" horiz-adv-x="1109" d="M352.555 194.517l-262.997 262.955-89.6-88.917 352.555-352.555 756.821 756.821-88.917 88.917z" />
<glyph unicode="&#xe93e;" glyph-name="edge" d="M960.985 471.631c0 90.585-19.692 173.292-55.138 240.246-39.385 70.892-94.523 126.031-157.538 165.415-66.954 39.385-141.785 55.138-224.492 55.138-55.138 0-102.4-7.877-149.662-23.631s-90.585-35.446-126.031-63.015-63.015-59.077-90.585-94.523-47.262-74.831-63.015-118.154c-15.754-43.323-27.569-82.708-31.508-129.969 23.631 31.508 47.262 59.077 74.831 86.646s59.077 55.138 94.523 78.769 78.769 39.385 122.092 55.138c43.323 15.754 90.585 23.631 141.785 23.631h11.815c7.877 0 19.692 0 31.508-3.938s27.569-7.877 39.385-11.815c15.754-3.938 27.569-11.815 43.323-23.631s27.569-23.631 39.385-35.446c11.815-15.754 19.692-31.508 23.631-55.138s7.877-47.262 3.938-74.831h-342.646c3.938 35.446 11.815 63.015 23.631 86.646s23.631 47.262 43.323 66.954c-74.831-35.446-133.908-82.708-177.231-145.723s-59.077-133.908-59.077-220.554c0-70.892 23.631-137.846 66.954-200.862s98.462-110.277 169.354-133.908c51.2-19.692 106.338-27.569 169.354-27.569s118.154 7.877 169.354 19.692c51.2 11.815 90.585 31.508 126.031 51.2v204.8c-27.569-19.692-59.077-35.446-94.523-47.262-35.446-15.754-74.831-23.631-114.215-27.569s-78.769-3.938-114.215 0c-39.385 3.938-70.892 15.754-102.4 31.508s-55.138 35.446-74.831 66.954c-19.692 27.569-27.569 63.015-27.569 102.4h610.462v102.4z" />
<glyph unicode="&#xe93f;" glyph-name="firefox" horiz-adv-x="1091" d="M1078.557 620.066c-4.197 0-8.393 0-8.393-4.197l-12.59-25.18c-4.197 33.574-12.59 92.328-25.18 130.098-16.787 58.754-54.557 96.525-54.557 96.525-4.197 4.197-8.393 4.197-12.59 0-4.197 0-4.197-4.197-4.197-8.393l8.393-41.967c-20.984 25.18-58.754 58.754-96.525 75.541-8.393 4.197-16.787 8.393-25.18 12.59-75.541 67.148-176.262 104.918-281.18 104.918-146.885 0-281.18-75.541-360.918-197.246-8.393 4.197-20.984 16.787-25.18 29.377-12.59 29.377-16.787 58.754-16.787 58.754 0 4.197-4.197 4.197-4.197 8.393-4.197 0-8.393 0-8.393 0-67.148-67.148-62.951-163.672-58.754-188.852-8.393-8.393-29.377-33.574-54.557-71.344-29.377-46.164-37.77-125.902-37.77-130.098s0-8.393 4.197-8.393c4.197 0 8.393 0 8.393 0l20.984 20.984c0-8.393-4.197-16.787-4.197-25.18-8.393-41.967-4.197-109.115-4.197-113.311s4.197-8.393 8.393-8.393c4.197 0 8.393 0 8.393 4.197l12.59 25.18c8.393-58.754 41.967-180.459 163.672-297.967 92.328-83.934 218.23-134.295 348.328-134.295 0 0 0 0 0 0 125.902 0 243.41 46.164 344.131 130.098 117.508 100.721 159.475 243.41 176.262 348.328 16.787 109.115 8.393 197.246 8.393 201.443-8.393 4.197-12.59 8.393-16.787 8.393zM881.311 620.066c0 0 12.59-16.787 16.787-58.754 0-29.377-4.197-79.738-8.393-104.918l-25.18 29.377c-4.197 4.197-8.393 4.197-8.393 4.197-4.197 0-4.197-4.197-4.197-8.393 0 0 8.393-71.344-4.197-130.098-8.393-29.377-16.787-50.361-25.18-62.951l4.197 46.164c0 4.197-4.197 8.393-8.393 8.393s-8.393 0-8.393-4.197c0 0-41.967-88.131-155.279-125.902-20.984-8.393-37.77-8.393-54.557-8.393-58.754 0-113.311 29.377-146.885 50.361 4.197 0 4.197 0 8.393 0 46.164 0 79.738 20.984 104.918 33.574 8.393 4.197 12.59 8.393 20.984 12.59 37.77 20.984 58.754 20.984 71.344 20.984 8.393 0 12.59 4.197 16.787 12.59 4.197 16.787-16.787 46.164-41.967 62.951-12.59 8.393-25.18 8.393-41.967 8.393-25.18 0-58.754-8.393-104.918-20.984-8.393-4.197-16.787-4.197-25.18-4.197-29.377 0-46.164 12.59-58.754 25.18-12.59 16.787-20.984 37.77-20.984 54.557 0 8.393 4.197 16.787 20.984 16.787s33.574-8.393 37.77-8.393c0 0 0 0 4.197 0 0 0 0 0 0 0 4.197 0 8.393 4.197 8.393 8.393 0 0 0 0 0 0l-4.197 79.738c8.393 4.197 29.377 20.984 50.361 33.574 50.361 37.77 58.754 50.361 50.361 62.951-4.197 12.59-25.18 16.787-46.164 20.984-12.59 0-25.18 4.197-37.77 8.393-25.18 8.393-41.967 33.574-46.164 37.77 0 4.197-4.197 20.984 4.197 33.574 8.393 16.787 37.77 37.77 46.164 46.164 4.197 4.197 4.197 4.197 4.197 8.393s-4.197 4.197-8.393 8.393c0 0-29.377 4.197-71.344-12.59-33.574-16.787-62.951-33.574-71.344-41.967-4.197 0-12.59 0-20.984 4.197 67.148 75.541 163.672 121.705 268.59 121.705 75.541 0 146.885-20.984 205.639-67.148l-62.951-12.59c-4.197 0-8.393-4.197-8.393-8.393s4.197-8.393 8.393-8.393c0 0 79.738-25.18 142.689-71.344 12.59-8.393 25.18-25.18 37.77-41.967 8.393-20.984 16.787-41.967 25.18-67.148l-20.984 16.787c-4.197 4.197-8.393 4.197-12.59 0-8.393 0-8.393-8.393-4.197-8.393z" />
<glyph unicode="&#xe940;" glyph-name="internet-explorer" horiz-adv-x="1057" d="M796.368 365.927h256.508c0 18.302 4.596 36.603 4.596 54.946 0.006 0.89 0.010 1.942 0.010 2.996 0 86.727-23.837 167.887-65.318 237.284l1.171-2.114c36.603 114.487 36.603 206.118-18.302 265.659-54.946 54.946-196.926 45.795-361.967-27.493h-36.603c-222.457-0.155-409.271-152.574-461.871-358.665l-0.714-3.302c61.766 86.845 143.657 155.55 239.080 200.123l3.723 1.562c-9.151-4.596-59.542-59.542-68.692-68.57-261.063-261.226-343.502-600.133-251.872-687.33 68.692-68.692 187.775-54.946 329.756 13.747 62.415-31.75 136.108-50.351 214.146-50.351 0.38 0 0.761 0 1.141 0.001h-0.059c0.809-0.005 1.766-0.008 2.724-0.008 206.249 0 381.514 132.658 445.124 317.304l0.991 3.309h-256.468c-36.657-64.894-104.601-108.333-182.812-109.807l-0.205-0.003c-78.763 0.219-147.226 44.107-182.472 108.72l-0.545 1.091c-14.448 29.466-22.897 64.129-22.897 100.764 0 0.006 0 0.012 0 0.018v-0.001h411.829zM375.022 494.161c5.453 104.858 91.803 187.816 197.529 187.816 1.404 0 2.805-0.015 4.202-0.044l-0.209 0.003c106.172-1.006 192.891-82.947 201.473-187.041l0.049-0.735zM970.437 869.712c36.603-36.603 36.603-105.336 4.596-187.775-54.049 80.527-128.749 143.395-216.601 181.763l-3.223 1.254c96.145 41.402 173.988 45.998 215.228 4.758zM100.090-0.635c-45.795 45.795-32.048 141.98 27.493 261.063 37.587-105.138 108.339-190.706 199.445-246.143l2.077-1.174c-100.659-45.673-187.694-54.824-228.893-13.584z" />
<glyph unicode="&#xe941;" glyph-name="linux" horiz-adv-x="876" d="M848.842 138.105c-30.316 13.474-43.789 30.316-40.421 53.895 0 26.947-13.474 50.526-23.579 57.263 3.368 16.842 16.842 77.474 0 131.368-20.211 57.263-77.474 144.842-141.474 229.053-23.579 33.684-26.947 74.105-26.947 117.895s-3.368 90.947-26.947 141.474c-23.579 57.263-77.474 90.947-141.474 90.947-37.053 0-77.474-13.474-107.789-33.684-60.632-40.421-50.526-134.737-47.158-195.368 0-6.737 0-16.842 3.368-23.579 3.368-60.632 0-90.947-3.368-101.053-3.368-6.737-16.842-23.579-30.316-43.789s-30.316-40.421-43.789-64c-16.842-23.579-30.316-64-43.789-101.053-10.105-26.947-16.842-53.895-26.947-67.368-16.842-30.316-13.474-57.263-10.105-67.368-6.737-3.368-13.474-13.474-23.579-30.316-10.105-20.211-26.947-30.316-67.368-37.053-16.842-3.368-30.316-10.105-37.053-23.579-10.105-16.842-3.368-37.053 0-50.526 6.737-20.211 3.368-33.684-6.737-57.263-3.368-6.737-3.368-10.105-6.737-16.842 3.368-3.368 3.368-13.474 10.105-23.579 13.474-23.579 57.263-30.316 101.053-33.684 26.947-3.368 53.895-13.474 80.842-23.579s53.895-20.211 80.842-23.579c3.368 0 6.737 0 10.105 0 37.053 0 57.263 26.947 60.632 37.053 13.474 3.368 60.632 13.474 111.158 13.474s97.684-6.737 111.158-10.105c3.368-6.737 16.842-26.947 33.684-37.053 10.105-6.737 23.579-6.737 37.053-6.737 0 0 0 0 0 0 13.474 0 43.789 3.368 64 26.947 23.579 23.579 77.474 53.895 117.895 77.474 10.105 3.368 16.842 10.105 23.579 13.474 23.579 13.474 33.684 30.316 33.684 50.526 3.368 10.105-6.737 23.579-23.579 30.316zM343.579 141.474c-3.368 20.211-26.947 40.421-57.263 64-23.579 20.211-50.526 40.421-60.632 57.263-16.842 37.053-3.368 104.421 16.842 138.105 10.105 16.842 20.211 43.789 26.947 67.368 10.105 26.947 20.211 53.895 30.316 67.368 16.842 20.211 33.684 57.263 33.684 84.211 16.842-13.474 40.421-33.684 64-33.684 3.368 0 6.737 0 10.105 0 16.842 3.368 37.053 16.842 60.632 30.316 20.211 10.105 40.421 23.579 50.526 26.947 13.474-20.211 101.053-215.579 111.158-276.211 6.737-50.526 0-90.947-3.368-104.421-3.368 0-6.737 0-10.105 0-23.579 0-30.316-13.474-33.684-20.211-3.368-20.211-3.368-87.579-3.368-101.053-10.105-10.105-53.895-64-117.895-74.105-26.947-3.368-50.526-6.737-70.737-6.737s-30.316 0-37.053 3.368l-30.316 37.053c10.105 3.368 23.579 16.842 20.211 40.421zM384 744.421c-3.368 0-3.368 0 0 0-3.368 0-3.368 3.368-3.368 6.737-3.368 20.211-16.842 33.684-30.316 33.684 0 0-3.368 0-3.368 0-10.105 0-16.842-6.737-20.211-16.842 3.368 20.211 13.474 37.053 30.316 37.053s30.316-23.579 30.316-47.158c-3.368-6.737-3.368-10.105-3.368-13.474zM508.632 727.579c0 3.368 3.368 10.105 3.368 16.842 0 23.579-13.474 40.421-33.684 40.421s-33.684-20.211-33.684-40.421c0 0 0-3.368 0-3.368s-3.368 0-3.368 0c-3.368 6.737-3.368 13.474-3.368 20.211 0 26.947 16.842 50.526 40.421 50.526s40.421-23.579 40.421-50.526c0-13.474-3.368-23.579-10.105-33.684zM495.158 673.684c0 0 0-3.368-10.105-6.737-3.368-3.368-10.105-3.368-13.474-6.737l-3.368-3.368c-16.842-10.105-53.895-33.684-64-33.684-6.737 0-10.105 3.368-20.211 6.737-3.368 0-3.368 3.368-6.737 3.368-16.842 10.105-26.947 23.579-30.316 26.947 6.737 3.368 20.211 13.474 26.947 20.211 13.474 13.474 30.316 23.579 37.053 23.579 0 0 0 0 0 0 10.105 0 30.316-10.105 43.789-16.842 6.737 3.368 13.474 0 16.842 0 13.474-6.737 20.211-10.105 23.579-13.474zM613.053 47.158c6.737 33.684 16.842 80.842 13.474 107.789 0 6.737 0 13.474 0 20.211 0 13.474-3.368 30.316 0 37.053 0 0 0 0 0 0 0-16.842 3.368-47.158 26.947-57.263 6.737-3.368 16.842-3.368 26.947-3.368 23.579 0 53.895 13.474 64 23.579 6.737 6.737 13.474 13.474 16.842 20.211 0-3.368 0-6.737 0-10.105 0-23.579 10.105-53.895 30.316-64h3.368c6.737-3.368 26.947-13.474 26.947-20.211 0 0 0 0 0 0-6.737-3.368-23.579-13.474-40.421-23.579-30.316-16.842-64-33.684-80.842-50.526-23.579-23.579-47.158-37.053-60.632-37.053-3.368 0-3.368 0-3.368 0-16.842 0-30.316 23.579-23.579 57.263zM60.632 134.737c0 6.737-3.368 13.474 0 20.211 0 3.368 23.579 10.105 33.684 10.105 13.474 3.368 26.947 6.737 37.053 10.105 13.474 6.737 16.842 20.211 23.579 33.684 3.368 10.105 6.737 16.842 13.474 20.211 0 0 0 0 0 0 10.105 0 30.316-20.211 40.421-37.053 3.368-3.368 6.737-13.474 13.474-23.579 20.211-30.316 43.789-74.105 57.263-87.579s30.316-37.053 26.947-60.632c-3.368-16.842-23.579-30.316-26.947-33.684 0 0-3.368 0-6.737 0-26.947 0-77.474 20.211-104.421 33.684l-3.368 3.368c-16.842 6.737-40.421 10.105-64 13.474-20.211 3.368-43.789 6.737-50.526 10.105-3.368 3.368 0 16.842 3.368 26.947 3.368 6.737 6.737 16.842 6.737 26.947 3.368 13.474 0 23.579 0 33.684z" />
<glyph unicode="&#xe942;" glyph-name="plus_add" d="M1024 373.081h-437.081v-437.081h-145.681v437.081h-437.081v145.681h437.081v437.081h145.681v-437.081h437.081z" />
<glyph unicode="&#xe943;" glyph-name="plus_circle" d="M512 960c-282.77 0-512-229.23-512-512s229.23-512 512-512c282.77 0 512 229.23 512 512v0c-0.104 282.728-229.273 511.896-511.99 512h-0.010zM768 396.8h-204.8v-204.8h-102.4v204.8h-204.8v102.4h204.8v204.8h102.4v-204.8h204.8z" />
<glyph unicode="&#xe944;" glyph-name="safari" d="M512 938.667c-268.8 0-490.667-221.867-490.667-490.667s221.867-490.667 490.667-490.667 490.667 221.867 490.667 490.667-221.867 490.667-490.667 490.667zM204.8 140.8l226.133 341.333 115.2-115.2-341.333-226.133zM588.8 413.867l-115.2 115.2 341.333 226.133-226.133-341.333z" />
<glyph unicode="&#xe945;" glyph-name="ubuntu-logo" horiz-adv-x="997" d="M337.498 457.588c0 80.539 38.352 149.573 95.88 195.596l-88.21 141.903c-76.704-53.693-130.397-130.397-157.243-218.607 42.187-26.846 69.034-72.869 69.034-126.562 0-49.858-26.846-95.88-65.199-122.727 26.846-84.375 84.375-157.243 153.408-207.101l80.539 145.738c-53.693 46.022-88.21 115.056-88.21 191.76zM214.772 449.918c0-57.528-49.858-107.386-107.386-107.386s-107.386 49.858-107.386 107.386c0 57.528 49.858 107.386 107.386 107.386s107.386-46.022 107.386-107.386zM816.899 192.959c23.011 0 49.858-7.67 69.034-15.341 65.199 69.034 107.386 157.243 111.221 256.959l-164.914 3.835c-11.506-126.562-118.891-222.442-245.453-222.442-34.517 0-69.034 7.67-99.715 19.176l-84.375-145.738c53.693-26.846 118.891-42.187 184.090-42.187 26.846 0 57.528 3.835 84.375 7.67 0 76.704 65.199 138.067 145.738 138.067zM924.285 43.386c0-57.528-46.022-107.386-107.386-107.386-57.528 0-107.386 46.022-107.386 107.386 0 57.528 49.858 107.386 107.386 107.386s107.386-49.858 107.386-107.386zM897.438 729.888c-23.011-15.341-53.693-26.846-84.375-26.846-80.539 0-149.573 65.199-149.573 149.573 0 3.835 0 7.67 0 11.506-26.846 3.835-49.858 7.67-76.704 7.67-65.199 0-130.397-15.341-184.090-42.187l80.539-145.738c30.682 15.341 65.199 23.011 103.551 23.011 126.562 0 230.112-95.88 245.453-218.607l164.914 3.835c-7.67 92.045-46.022 172.584-99.715 237.783zM916.614 852.614c0-57.528-46.022-107.386-107.386-107.386-57.528 0-107.386 49.858-107.386 107.386s49.858 107.386 107.386 107.386c61.363 0 107.386-49.858 107.386-107.386z" />
<glyph unicode="&#xe946;" glyph-name="apple" horiz-adv-x="833" d="M43.835 611.367c-87.67-154.388-32.295-395.737 64.473-540.278 46.119-72.35 96.847-135.089 161.477-135.089h4.608c27.116 0.050 52.551 7.201 74.559 19.691l-0.752-0.393c25.409 13.612 55.318 22.324 87.081 24.079l0.549 0.024c30.236-0.207 58.766-7.307 84.161-19.804l-1.138 0.506c24.257-11.991 52.786-19.091 82.953-19.298h0.070c73.807 0 119.926 72.35 161.477 135.089 29.648 42.894 53.335 92.706 68.354 146.144l0.844 3.517c0 4.805 0 9.649-4.608 9.649v0c-76.828 34.857-129.298 110.893-129.298 199.185 0 2.903 0.057 5.792 0.169 8.667l-0.013-0.413c-0.002 0.317-0.003 0.692-0.003 1.067 0 80.481 41.954 151.164 105.184 191.371l0.92 0.547 4.608 4.805v4.687c-40.807 62.859-109.973 104.31-188.934 106.137l-0.269 0.005h-18.432c-44.096-3.756-84.802-14.047-122.574-29.936l2.648 0.989c-15.988-8.799-34.55-15.51-54.196-19.124l-1.139-0.174c-22.446 3.628-42.609 10.365-61.143 19.837l1.16-0.538c-30.804 16.093-66.941 26.52-105.255 28.909l-0.768 0.038h-4.608c-93.375-4.077-172.919-59.425-211.521-138.435l-0.644-1.46zM607.035 960c-52.072-5.427-97.524-30.127-129.78-66.735l-0.189-0.219c-29.64-32.626-47.787-76.159-47.787-123.931 0-4.897 0.191-9.75 0.565-14.551l-0.040 0.635c0.295-4.227 3.65-7.582 7.85-7.875l0.027-0.001h7.877c50.695 2.906 95.323 26.664 125.814 62.752l0.217 0.263c29.617 34.632 47.641 79.949 47.641 129.475 0 4.331-0.138 8.629-0.409 12.891l0.030-0.582c-3.938 3.938-7.877 7.877-11.815 7.877z" />
<glyph unicode="&#xe947;" glyph-name="resend" d="M873.354 809.59c-92.709 92.986-220.933 150.518-362.594 150.518-282.77 0-512-229.23-512-512s229.23-512 512-512c237.244 0 436.8 161.36 494.908 380.319l0.806 3.573h-133.12c-54.354-150.205-195.748-255.606-361.76-255.606-211.969 0-383.803 171.834-383.803 383.803s171.834 383.803 383.803 383.803c0.060 0 0.12 0 0.179 0h-0.010c105.809-0.177 201.409-43.735 269.994-113.832l0.066-0.068-206.060-206.1h448v448z" />
<glyph unicode="&#xe948;" glyph-name="faq" d="M460.623 140.8h102.361v102.361h-102.361zM511.803 960c-282.661 0-511.803-229.142-511.803-511.803s229.142-511.803 511.803-511.803c282.661 0 511.803 229.142 511.803 511.803v0c-0.224 282.571-229.232 511.579-511.782 511.803h-0.021zM511.803 38.4c-225.976 0.202-409.088 183.438-409.088 409.442 0 226.129 183.314 409.443 409.443 409.443 226.004 0 409.24-183.112 409.442-409.069v-0.019c-0.202-226.243-183.553-409.595-409.777-409.797h-0.020zM511.803 755.279c-113.064 0-204.721-91.657-204.721-204.721v0h102.361c0 56.532 45.828 102.361 102.361 102.361s102.361-45.828 102.361-102.361v0c0-102.361-153.541-89.605-153.541-255.902h102.361c0 115.195 153.541 127.99 153.541 255.902 0 113.064-91.657 204.721-204.721 204.721v0z" />
<glyph unicode="&#xe949;" glyph-name="outlook" horiz-adv-x="1013" d="M595.575-64c-112.382 23.709-223.578 46.905-334.813 70.179-82.429 17.347-164.818 34.853-247.366 51.765-9.405 1.936-13.396 4.505-13.396 15.055q0.395 380.335 0.237 760.986c0 3.398 0.474 6.797 0.83 11.222 198.051 38.093 395.627 76.344 594.508 114.792zM166.794 449.976c-0.17-3.209-0.266-6.966-0.266-10.745 0-37.619 9.582-72.999 26.439-103.835l-0.566 1.132c20.222-39.335 60.526-65.777 107.007-65.777 0.834 0 1.666 0.009 2.495 0.025l-0.124-0.002c0.276-0.002 0.602-0.004 0.928-0.004 47.107 0 87.893 27.061 107.661 66.486l0.315 0.694c16.34 29.176 25.963 64.025 25.963 101.121 0 0.264 0 0.527-0.001 0.791v-0.041c0.47 5.381 0.738 11.642 0.738 17.966 0 43.632-12.751 84.286-34.73 118.439l0.523-0.868c-22.117 31.585-58.337 51.981-99.321 51.981-33.546 0-63.901-13.665-85.801-35.733l-0.008-0.008c-31.909-34.791-51.463-81.364-51.463-132.504 0-3.207 0.077-6.397 0.229-9.567l-0.017 0.448zM635.288 195.853v270.798c19.758-13.396 38.251-25.053 55.638-38.053 4.469-3.899 10.354-6.277 16.794-6.277s12.325 2.377 16.824 6.303l-0.030-0.026q133.957 90.095 268.704 179.202c5.69 3.952 11.578 7.271 19.244 12.092 0.316-6.757 0.751-11.459 0.751-16.162v-342.637c0.023-0.852 0.036-1.855 0.036-2.861 0-8.433-0.905-16.654-2.624-24.572l0.138 0.76c-4.013-21.876-22.93-38.235-45.668-38.235-0.518 0-1.034 0.008-1.548 0.025l0.075-0.002c-33.469-0.672-66.86-0.356-100.25-0.395h-228.082zM636.671 742.429c4.347 0 8.259 0.514 12.329 0.514h320.351c0.863 0.066 1.869 0.104 2.884 0.104 18.935 0 34.793-13.173 38.91-30.854l0.053-0.27c0.11-0.717 0.174-1.544 0.174-2.386 0-4.786-2.041-9.096-5.299-12.106l-0.011-0.010q-143.717-98.117-288.738-195.048c-2.752-1.373-5.994-2.176-9.424-2.176s-6.673 0.803-9.55 2.232l0.125-0.056c-19.56 11.025-38.409 23.235-56.942 35.84-3.79 2.733-6.364 6.95-6.87 11.783l-0.006 0.072c-0.316 62.869 0 125.817 0 188.607 0.541 1.508 1.221 2.814 2.052 4.007l-0.036-0.055zM372.629 435.039c-5.23-24.613-10.883-44.992-17.59-64.886l1.191 4.072c-7.706-21.45-27.87-36.514-51.553-36.514-0.144 0-0.288 0.001-0.432 0.002h0.022c-0.816-0.041-1.771-0.065-2.732-0.065-22.752 0-42.411 13.243-51.689 32.441l-0.149 0.342c-11.457 20.403-18.205 44.781-18.205 70.736 0 8.273 0.686 16.386 2.003 24.286l-0.118-0.856c2.877 24.724 9.933 47.227 20.47 67.64l-0.514-1.096c9.799 17.84 28.462 29.731 49.902 29.731 21.218 0 39.716-11.646 49.451-28.894l0.147-0.283c12.66-25.178 20.072-54.869 20.072-86.291 0-3.646-0.1-7.268-0.297-10.864l0.022 0.501z" />
<glyph unicode="&#xe94a;" glyph-name="search" d="M732.199 315.55h-46.198l-16.384 15.754c57.061 66.188 91.814 153.014 91.814 247.957 0 210.272-170.459 380.731-380.731 380.731s-380.731-170.459-380.731-380.731c0-210.272 170.459-380.731 380.731-380.731 94.943 0 181.769 34.752 248.451 92.23l-0.494-0.416 15.754-16.384v-46.198l292.391-291.801 87.158 87.158zM381.322 315.55c-144.996 0.201-262.461 117.789-262.461 262.813 0 145.148 117.666 262.814 262.814 262.814s262.814-117.666 262.814-262.814c0-72.583-29.424-138.294-76.994-185.855v0c-47.612-47.551-113.354-76.958-185.965-76.958-0.072 0-0.145 0-0.217 0h0.011z" />
<glyph unicode="&#xe94b;" horiz-adv-x="3844" d="M1264.268 380.132c0 14.042-5.201 26.003-15.602 34.844-10.401 9.361-29.643 17.162-56.167 24.443-38.485 9.881-68.128 23.403-88.41 40.045-20.802 16.642-31.204 38.485-31.204 65.008 0 27.563 11.441 50.446 34.324 68.648 22.883 17.682 52.526 27.043 88.41 27.043 37.964 0 68.128-10.401 91.011-30.684s34.324-44.725 33.284-73.329l-0.52-1.56h-54.606c0 17.682-6.241 31.724-18.202 42.645s-29.123 16.642-50.966 16.642c-20.802 0-36.924-4.681-48.366-13.522-11.441-9.361-17.162-20.802-17.162-35.364 0-13.002 6.241-23.923 18.202-32.764 11.961-8.321 32.244-16.642 60.327-24.443 36.924-9.881 65.008-23.403 84.25-41.085 19.242-17.162 28.603-39.525 28.603-66.568 0-28.603-11.441-50.966-34.324-68.128s-52.526-25.483-89.971-25.483c-35.884 0-67.088 9.361-94.131 28.603s-40.045 45.245-39.525 78.009l0.52 1.56h55.126c0-20.802 7.281-36.404 21.843-46.805s33.284-15.602 56.687-15.602c21.322 0 37.444 4.16 49.406 12.481 11.441 9.361 17.162 20.802 17.162 35.364z" />
<glyph unicode="&#xe94c;" horiz-adv-x="3844" d="M1527.939 291.722c-2.080 6.761-3.64 12.481-5.201 18.722-1.040 6.241-2.080 12.481-2.6 18.202-7.801-11.961-18.202-21.843-31.204-30.164-12.481-8.321-27.043-12.481-42.645-12.481-26.523 0-47.326 6.761-61.367 20.802-14.042 13.522-21.322 32.244-21.322 56.167 0 24.443 9.361 43.685 29.123 57.727s46.805 20.802 82.17 20.802h44.725v22.363c0 13.522-4.16 23.923-11.961 31.204-8.321 7.801-19.242 11.441-33.804 11.441-13.002 0-23.403-3.12-31.204-9.361s-11.441-14.042-11.441-24.443h-55.126l-0.52 1.56c-1.040 20.282 7.801 37.964 27.043 53.566s44.205 23.403 74.369 23.403c29.643 0 53.566-7.281 71.768-22.363s27.563-36.924 27.563-65.008v-113.373c0-10.401 0.52-20.802 2.080-30.164s3.64-19.242 6.761-28.603h-57.207zM1457.731 332.807c14.042 0 27.563 3.64 39.005 10.921s18.722 15.602 22.883 24.963v37.444h-45.765c-16.642 0-29.643-4.16-39.005-12.481s-14.042-17.682-14.042-29.123c0-9.881 3.64-17.682 9.361-23.403 6.761-5.201 15.602-8.321 27.563-8.321z" />
<glyph unicode="&#xe94d;" horiz-adv-x="3844" d="M1697.999 291.722h-57.207v367.683h57.207v-367.683z" />
<glyph unicode="&#xe94e;" horiz-adv-x="3844" d="M1871.699 287.041c-36.404 0-65.008 11.961-86.33 35.364s-31.724 54.086-31.724 91.011v9.361c0 36.924 10.401 67.608 31.724 92.051s47.846 36.404 79.569 36.404c34.324 0 60.847-10.401 79.049-31.204s27.563-48.886 27.563-83.73v-33.804h-159.139l-0.52-1.040c1.040-20.282 7.281-36.404 18.202-49.406s26.003-19.242 45.245-19.242c15.602 0 28.603 2.080 39.525 5.721s21.322 9.361 31.724 16.122l18.202-37.444c-9.361-8.321-21.843-15.602-37.964-21.322-16.122-6.241-34.324-8.841-55.126-8.841zM1864.939 505.467c-14.042 0-25.483-5.721-34.844-16.642-8.841-11.441-15.082-25.483-17.162-42.645l0.52-1.040h100.892v5.721c0 16.122-4.16 29.643-12.481 39.525-7.801 9.881-20.282 15.082-36.924 15.082z" />
<glyph unicode="&#xe94f;" horiz-adv-x="3844" d="M2160.853 361.41c0 8.841-3.64 16.122-11.441 21.843-7.281 5.721-21.843 10.921-42.125 15.602-30.164 6.241-53.566 15.602-69.168 27.563s-23.403 28.083-23.403 48.366c0 21.322 9.361 39.525 27.043 54.606 18.202 15.082 42.125 22.363 71.248 22.363 31.204 0 55.647-7.801 74.369-22.883 18.202-15.082 27.043-34.324 26.523-56.687l-0.52-1.56h-55.126c0 10.401-4.16 19.762-11.961 27.043-8.321 7.801-18.722 11.441-32.764 11.441s-24.443-3.12-31.724-9.361c-7.281-6.241-10.921-14.042-10.921-22.883s3.64-16.122 10.401-21.322c6.761-5.201 20.802-9.881 41.605-14.042 32.244-6.761 55.647-15.602 71.248-28.083 15.602-11.961 23.403-28.603 23.403-48.886 0-22.883-9.361-41.605-28.603-55.647-18.722-14.562-43.685-21.322-74.889-21.322-33.284 0-59.287 8.321-78.529 25.483-18.722 17.162-28.083 36.404-27.563 58.247l0.52 1.56h53.046c0.52-14.562 6.241-25.483 16.122-32.244s22.363-9.881 36.924-9.881c14.562 0 26.003 2.6 34.324 8.321 7.801 4.681 11.961 12.481 11.961 22.363z" />
<glyph unicode="&#xe950;" horiz-adv-x="3844" d="M2534.777 291.722h-28.083v158.099h-195.023v-158.099h-28.603v343.24h28.083v-161.219h195.543v161.219h28.083v-343.24z" />
<glyph unicode="&#xe951;" horiz-adv-x="3844" d="M2778.166 291.722c-2.080 8.841-3.12 16.122-3.64 22.363-1.040 6.241-1.040 12.481-1.040 19.242-9.361-13.522-21.843-24.443-37.964-33.284-15.602-8.841-33.284-13.002-53.046-13.002-24.963 0-44.205 6.761-57.727 19.762s-20.802 30.684-20.802 53.046c0 23.403 10.401 42.125 30.684 56.687 20.282 14.042 47.846 21.322 82.17 21.322h56.167v31.724c0 18.202-5.721 32.244-17.682 42.645s-28.083 15.602-49.406 15.602c-19.762 0-35.884-5.201-48.886-14.562-13.002-9.881-19.242-21.843-19.242-36.404h-26.003l-0.52 1.56c-1.040 19.242 7.801 35.884 26.003 50.966s41.605 22.363 69.688 22.363c28.083 0 50.966-7.281 67.608-21.322 17.162-14.562 26.003-34.844 26.003-61.367v-125.335c0-8.841 0.52-17.682 1.56-26.003s2.6-17.162 5.201-25.483h-29.123zM2685.595 312.004c20.282 0 37.964 4.681 54.086 14.042 15.602 9.361 26.523 21.843 33.804 36.404v53.046h-56.687c-25.483 0-46.285-5.201-61.367-16.122-15.602-10.921-22.883-24.443-22.883-40.565 0-14.042 4.681-24.963 14.042-33.804s22.363-13.002 39.005-13.002z" />
<glyph unicode="&#xe952;" horiz-adv-x="3844" d="M2901.42 547.072l2.6-44.725c8.321 15.602 19.242 27.563 33.284 36.404 14.042 8.321 30.164 12.481 49.406 12.481 27.563 0 48.886-8.321 62.927-25.483 14.562-17.162 21.843-43.165 21.843-79.049v-155.498h-28.603v156.018c0 29.123-5.201 49.926-16.122 61.887s-26.523 18.202-46.285 18.202c-19.762 0-35.884-5.201-48.366-15.602s-21.322-24.443-27.043-41.605v-178.381h-28.603v254.83h24.963z" />
<glyph unicode="&#xe953;" horiz-adv-x="3844" d="M3133.887 417.056c0 40.565 8.321 73.329 25.483 97.771s41.085 36.404 71.768 36.404c17.682 0 33.284-3.64 46.285-11.441 13.002-7.281 23.923-18.202 32.764-31.724v151.338h28.083v-367.683h-24.963l-2.080 36.924c-8.321-13.522-19.242-23.923-32.764-31.204s-29.123-10.921-47.326-10.921c-30.164 0-54.086 11.441-71.768 34.324-17.162 22.883-25.483 53.046-25.483 91.531v4.681zM3161.971 412.376c0-30.684 6.241-55.647 18.722-73.849s31.204-27.563 55.647-27.563c18.202 0 33.284 4.16 45.765 12.481 11.961 8.321 21.322 19.762 28.603 33.804v120.134c-6.761 15.082-15.602 27.043-27.563 35.884-11.961 9.361-27.043 14.042-46.285 14.042-24.963 0-43.685-9.881-56.167-30.684-12.481-20.282-18.722-46.805-18.722-79.569v-4.681z" />
<glyph unicode="&#xe954;" horiz-adv-x="3844" d="M3485.969 360.89l8.841-30.164h1.56l76.969 216.345h31.724l-110.773-295.915c-6.761-17.162-15.082-31.724-25.483-44.205-10.401-11.961-26.003-18.202-46.285-18.202-3.12 0-7.281 0.52-11.961 1.040s-8.321 1.56-10.401 2.080l3.12 23.403c2.080-0.52 5.201-0.52 9.361-1.040s7.281-0.52 8.841-0.52c12.481 0 21.843 4.16 29.643 13.002 7.281 8.841 13.522 19.762 18.722 33.804l13.522 34.324-98.292 251.709h31.204l69.688-185.662z" />
<glyph unicode="&#xe955;" horiz-adv-x="3844" d="M860.701 775.898h-554.385c-20.802 0-37.964-17.162-37.964-37.964v-554.905c0-20.802 17.162-37.964 37.964-37.964h554.905c20.802 0 37.964 17.162 37.964 37.964v554.905c-0.52 20.802-17.162 37.964-38.485 37.964z" />
<glyph unicode="&#xe956;" horiz-adv-x="3844" d="M406.168 406.655c29.123-35.884 94.131-37.444 95.691-5.721 1.040 16.642-26.003 26.003-49.926 29.123-47.326 7.281-89.971 36.924-89.971 93.091 0 57.727 52.006 87.89 105.572 87.89 35.364 0 69.688-9.881 99.852-46.805l-48.366-36.924c-30.684 32.764-83.21 31.204-84.25-2.6 1.040-14.042 16.122-22.363 39.005-27.043 52.006-9.361 104.012-27.563 100.892-99.852-2.6-56.687-61.887-87.37-115.454-87.37-34.844 0-72.288 17.682-99.852 53.046l46.805 43.165z" />
<glyph unicode="&#xe957;" horiz-adv-x="3844" d="M639.675 314.084h-74.369v292.794h74.369v-110.773h84.25v110.773h74.369v-292.794h-74.369v110.773h-84.25z" />
<glyph unicode="&#xe958;" horiz-adv-x="3844" d="M565.306 447.22v-83.73c5.721 9.881 8.841 21.322 9.361 33.804 1.56 21.322-2.080 37.444-9.361 49.926z" />
<glyph unicode="&#xe959;" d="M961.53 960h-899.904c-33.956-0.195-61.431-27.67-61.626-61.607v-900.768c0.195-33.956 27.67-61.431 61.607-61.626h900.768c33.956 0.195 61.431 27.67 61.626 61.607v900.768c-0.606 34.084-28.315 61.498-62.458 61.626h-0.012z" />
<glyph unicode="&#xe95a;" d="M223.71 360.627c47.275-58.249 152.798-60.782 155.331-9.286 1.688 27.014-42.209 42.209-81.042 47.275-76.821 11.819-146.045 59.937-146.045 151.11 0 93.705 84.419 142.668 171.37 142.668 57.405 0 113.121-16.040 162.084-75.977l-78.509-59.937c-49.807 53.184-135.070 50.651-136.758-4.221 1.688-22.793 26.17-36.3 63.314-43.898 84.419-15.195 168.838-44.742 163.772-162.084-4.221-92.016-100.458-141.824-187.41-141.824-56.561 0-117.342 28.702-162.084 86.107z" />
<glyph unicode="&#xe95b;" d="M602.75 210.361h-120.719v475.278h120.719v-179.812h136.758v179.812h120.719v-475.278h-120.719v179.812h-136.758z" />
<glyph unicode="&#xe95c;" d="M482.031 426.473v-135.914c9.061 15.797 14.628 34.626 15.192 54.707l0.004 0.165c0.63 4.935 0.989 10.644 0.989 16.437 0 23.654-5.993 45.908-16.543 65.326l0.358-0.721z" />
<glyph unicode="&#xe95d;" glyph-name="SalesHandyLogo" horiz-adv-x="5530" d="M436.79 352.389c0.024 0.794 0.037 1.728 0.037 2.665 0 29.272-13.14 55.474-33.843 73.031l-0.139 0.115c-22.63 20.367-64.495 37.339-122.201 53.18-83.73 21.498-148.225 50.917-192.354 87.125-41.475 31.954-67.934 81.637-67.934 137.5 0 1.384 0.016 2.765 0.049 4.141l-0.004-0.205c-0.005 0.505-0.008 1.103-0.008 1.701 0 60.36 29.175 113.907 74.193 147.306l0.493 0.35c49.786 38.471 114.281 58.838 192.354 58.838 82.599 0 148.225-22.63 198.011-66.758s74.678-97.308 72.415-159.54l-1.131-3.394h-118.807c0.038 1.127 0.060 2.452 0.060 3.782 0 35.283-15.267 67.001-39.556 88.907l-0.106 0.094c-26.024 23.761-63.364 36.208-110.886 36.208-45.26 0-80.336-10.183-105.229-29.419-22.796-17.399-37.356-44.584-37.356-75.17 0-0.623 0.006-1.244 0.018-1.864l-0.001 0.093c0.52-29.806 16.018-55.882 39.271-71.081l0.332-0.203c26.024-18.104 70.152-36.208 131.253-53.18 80.336-21.498 141.436-50.917 183.302-89.388 38.318-34.083 62.338-83.521 62.338-138.569 0-2.202-0.038-4.395-0.115-6.579l0.009 0.317c0.038-1.369 0.060-2.979 0.060-4.595 0-59.172-29.304-111.499-74.191-143.262l-0.548-0.368c-49.786-37.339-114.281-55.443-195.748-55.443-2.283-0.055-4.972-0.086-7.668-0.086-73.84 0-142.229 23.336-198.196 63.034l1.064-0.717c-52.265 35.127-86.197 94.029-86.197 160.857 0 3.118 0.074 6.22 0.22 9.302l-0.016-0.435 1.131 3.394h119.938q0-67.89 47.523-101.834c31.682-22.63 72.415-33.945 123.333-33.945 46.391 0 81.467 9.052 107.492 27.156 22.796 17.399 37.356 44.584 37.356 75.17 0 0.623-0.006 1.244-0.018 1.864l0.001-0.093zM1010.456 160.035c-4.526 14.709-7.92 27.156-11.315 40.734-2.263 13.578-4.526 27.156-5.657 39.602-17.885-26.596-40.556-48.545-66.961-65.084l-0.928-0.542c-25.562-17.026-56.979-27.168-90.764-27.168-0.71 0-1.418 0.004-2.126 0.013l0.107-0.001c-57.706 0-102.966 14.709-133.516 45.26-30.55 29.419-46.391 70.152-46.391 122.201-0.073 1.722-0.115 3.742-0.115 5.772 0 49.616 24.949 93.404 62.986 119.505l0.493 0.319c42.997 30.55 101.834 45.26 178.776 45.26h97.308v48.654c0.091 1.499 0.142 3.252 0.142 5.017 0 24.576-10.004 46.815-26.162 62.868l-0.005 0.005c-17.785 15.595-41.242 25.109-66.92 25.109-2.332 0-4.645-0.078-6.937-0.233l0.311 0.017c-1.607 0.087-3.488 0.137-5.381 0.137-23.522 0-45.246-7.695-62.793-20.706l0.285 0.202c-15.232-11.704-24.953-29.928-24.953-50.422 0-0.97 0.022-1.935 0.065-2.894l-0.005 0.136h-119.938l-1.131 3.394c-2.263 44.128 16.972 82.599 58.838 116.544s96.177 50.917 161.803 50.917c64.495 0 116.544-15.841 156.146-48.654s59.969-80.336 59.969-141.436v-246.665c-0.018-1.443-0.029-3.148-0.029-4.855 0-21.447 1.656-42.507 4.847-63.060l-0.292 2.288c3.77-23.895 8.89-44.87 15.538-65.153l-0.829 2.921zM857.705 249.423c0.501-0.006 1.092-0.009 1.684-0.009 30.812 0 59.556 8.853 83.828 24.153l-0.651-0.383c21.66 12.831 38.746 31.371 49.461 53.565l0.325 0.747v81.467h-99.571q-54.312 0-84.862-27.156c-18.642-15.001-30.487-37.792-30.55-63.353v-0.011c-0.012-0.478-0.018-1.041-0.018-1.605 0-19.25 7.789-36.681 20.387-49.314l-0.001 0.001c15.434-11.369 34.824-18.195 55.808-18.195 1.464 0 2.919 0.033 4.367 0.099l-0.205-0.007zM1380.454 160.035h-124.464v799.965h124.464zM1758.372 149.852c-79.204 0-141.436 26.024-187.828 76.941s-69.021 117.675-69.021 198.011v20.367c0 80.336 22.63 147.094 69.021 200.274 40.627 48.57 101.256 79.242 169.049 79.242 1.431 0 2.858-0.014 4.283-0.041l-0.213 0.003c74.678 0 132.385-22.63 171.987-67.89s59.969-106.36 59.969-182.17v-73.547h-346.236l-1.131-2.263c0.825-41.015 15.637-78.418 39.842-107.792l-0.24 0.3c22.357-25.814 55.181-42.047 91.797-42.047 2.337 0 4.658 0.066 6.962 0.197l-0.319-0.014c1.4-0.026 3.051-0.041 4.705-0.041 29.028 0 56.99 4.567 83.205 13.022l-1.917-0.534c26.35 9.536 49.142 21.374 70.055 35.748l-1.034-0.672 39.602-81.467c-23.292-19.897-50.777-35.704-80.856-45.879l-1.743-0.512c-33.11-12.258-71.355-19.35-111.257-19.35-3.053 0-6.096 0.042-9.129 0.124l0.447-0.010zM1743.663 625.078c-0.22 0.002-0.481 0.003-0.742 0.003-30.314 0-57.344-14.063-74.921-36.020l-0.147-0.19c-19.93-25.697-33.348-57.375-37.261-91.934l-0.078-0.848 1.131-2.263h219.509v12.446c0.091 1.827 0.144 3.968 0.144 6.121 0 30.221-10.273 58.043-27.518 80.164l0.218-0.291c-16.972 21.498-44.128 32.813-80.336 32.813zM2387.481 311.655c0.004 0.262 0.007 0.571 0.007 0.881 0 19.356-9.797 36.424-24.702 46.515l-0.198 0.126c-15.841 12.446-47.523 23.761-91.651 33.945-65.627 13.578-116.544 33.945-150.488 59.969-31.076 23.152-50.985 59.793-50.985 101.084 0 1.458 0.025 2.909 0.074 4.355l-0.006-0.21c0 46.391 20.367 85.993 58.838 118.807 39.602 32.813 91.651 48.654 155.014 48.654 67.89 0 121.070-16.972 161.803-49.786 35.313-27.681 57.792-70.339 57.792-118.247 0-1.789-0.031-3.57-0.093-5.343l0.007 0.257-1.131-3.394h-119.938c0 0.076 0 0.166 0 0.257 0 23.208-10.015 44.077-25.958 58.521l-0.067 0.060c-17.256 15.554-40.221 25.069-65.408 25.069-2.067 0-4.119-0.064-6.155-0.19l0.279 0.014c-30.55 0-53.18-6.789-69.021-20.367-14.542-11.777-23.761-29.63-23.761-49.637 0-0.052 0-0.105 0-0.157v0.008c-0.009-0.371-0.014-0.808-0.014-1.246 0-18.414 8.836-34.764 22.499-45.041l0.144-0.104c14.709-11.315 45.26-21.498 90.519-30.55 70.152-14.709 121.070-33.945 155.014-61.101 31.103-23.566 50.987-60.528 50.987-102.135 0-1.486-0.025-2.966-0.076-4.439l0.006 0.214c0.022-0.934 0.034-2.033 0.034-3.136 0-48.786-24.461-91.858-61.788-117.621l-0.478-0.312c-40.734-31.682-95.045-46.391-162.935-46.391-72.415 0-128.99 18.104-170.855 55.443-40.734 37.339-61.101 79.204-59.969 126.727l1.131 3.394h115.412c-0.013-0.544-0.020-1.184-0.020-1.826 0-28.048 13.737-52.887 34.85-68.157l0.246-0.169c21.145-13.56 46.947-21.615 74.631-21.615 2.006 0 4.003 0.042 5.988 0.126l-0.284-0.010c2.392-0.157 5.187-0.246 8.002-0.246 24.609 0 47.626 6.822 67.261 18.677l-0.584-0.327c15.736 9.567 26.086 26.619 26.086 46.088 0 0.903-0.022 1.8-0.066 2.691l0.005-0.125zM3201.024 160.035h-61.101v343.973h-424.309v-343.973h-62.232v746.785h61.101v-350.762h425.441v350.762h61.101zM3730.562 160.035c-3.513 13.853-6.313 30.436-7.829 47.39l-0.091 1.264c-1.508 10.374-2.369 22.352-2.369 34.532 0 2.579 0.039 5.149 0.115 7.709l-0.009-0.375c-21.517-30.209-49.196-54.633-81.336-71.8l-1.263-0.616c-31.895-17.836-69.983-28.339-110.524-28.339-1.719 0-3.433 0.019-5.143 0.056l0.255-0.004c-54.312 0-96.177 14.709-125.596 42.997-28.039 27.791-45.398 66.317-45.398 108.897 0 2.291 0.050 4.571 0.15 6.838l-0.011-0.323c0 50.917 22.63 91.651 66.758 123.333 44.128 30.55 104.097 46.391 178.776 46.391h122.201v69.021c0.116 1.938 0.182 4.204 0.182 6.485 0 34.249-14.887 65.022-38.542 86.2l-0.11 0.097c-26.024 22.63-61.101 33.945-107.492 33.945-1.547 0.049-3.366 0.076-5.191 0.076-37.863 0-72.95-11.887-101.731-32.133l0.563 0.375c-25.409-17.391-41.866-46.245-41.866-78.943 0-0.092 0-0.183 0-0.275v0.014h-56.575l-1.131 3.394c-2.263 41.865 16.972 78.073 56.575 110.886s90.519 48.654 151.62 48.654 110.886-15.841 147.094-46.391c37.339-31.682 56.575-75.81 56.575-133.516v-272.69c0-0.225-0.001-0.492-0.001-0.758 0-19.673 1.234-39.058 3.628-58.082l-0.233 2.266c2.407-20.82 6.382-39.61 11.913-57.721l-0.598 2.278h-63.364zM3529.157 204.164c1.070-0.018 2.332-0.028 3.596-0.028 42.004 0 81.356 11.354 115.155 31.161l-1.076-0.583c31.686 18.931 56.83 45.892 73.050 78.116l0.496 1.088v115.412h-123.333c-55.443 0-100.703-11.315-133.516-35.076-33.945-23.761-49.786-53.18-49.786-88.256-0.039-1.022-0.061-2.223-0.061-3.429 0-27.675 11.758-52.604 30.552-70.063l0.060-0.055c20.367-19.235 48.654-28.287 84.862-28.287zM3998.726 715.598l5.657-97.308c31.574 63.623 96.093 106.586 170.647 106.586 3.257 0 6.495-0.082 9.712-0.244l-0.452 0.018c59.969 0 106.36-18.104 136.91-55.443 31.682-37.339 47.523-93.914 47.523-171.987v-338.316h-62.232v339.448c0 63.364-11.315 108.623-35.076 134.648s-57.706 39.602-100.703 39.602c-2.056 0.095-4.466 0.149-6.888 0.149-37.283 0-71.567-12.843-98.669-34.345l0.328 0.251c-27.158-23.595-47.587-54.261-58.467-89.141l-0.371-1.379v-388.102h-62.232v554.431h54.312zM4504.502 432.725c0 88.256 18.104 159.54 55.443 212.72 32.719 48.139 87.226 79.346 149.021 79.346 2.506 0 4.999-0.051 7.48-0.153l-0.355 0.012c1.725 0.055 3.754 0.087 5.79 0.087 34.891 0 67.618-9.268 95.852-25.477l-0.939 0.497c29.241-17.244 53.204-40.484 70.783-68.176l0.501-0.845v329.264h61.101v-799.965h-54.312l-4.526 80.336c-17.485-28.665-41.607-51.699-70.312-67.402l-0.972-0.487c-28.416-15.011-62.108-23.823-97.858-23.823-1.796 0-3.587 0.022-5.372 0.066l0.265-0.005c-1.963-0.074-4.268-0.116-6.583-0.116-60.956 0-115.097 29.175-149.222 74.324l-0.341 0.471c-37.339 49.786-55.443 115.412-55.443 199.143v10.183zM4565.603 422.541c0-66.758 13.578-121.070 40.734-160.672s67.89-59.969 121.070-59.969c1.756-0.063 3.82-0.099 5.891-0.099 34.766 0 67.159 10.16 94.371 27.672l-0.692-0.417c26.299 19.066 47.368 43.757 61.712 72.401l0.52 1.146v261.375c-13.325 31.572-33.815 57.875-59.529 77.746l-0.44 0.327c-25.753 19.19-58.197 30.723-93.334 30.723-2.592 0-5.169-0.063-7.73-0.187l0.361 0.014c-54.312 0-95.045-21.498-122.201-66.758q-40.734-66.192-40.734-173.118zM5270.522 310.524l19.235-65.627h3.394l167.461 470.701h69.021l-241.008-643.819c-14.146-36.853-32.863-68.669-55.926-96.783l0.483 0.607c-22.63-26.024-56.575-39.602-100.703-39.602-6.789 0-15.841 1.131-26.024 2.263-8.619 1.079-16.285 2.666-23.724 4.794l1.094-0.268 6.789 50.917c4.526-1.131 11.315-1.131 20.367-2.263 5.487-0.722 11.831-1.135 18.272-1.135 0.339 0 0.677 0.001 1.015 0.003h-0.052c0.985-0.043 2.14-0.068 3.3-0.068 24.474 0 46.388 10.961 61.101 28.242l0.094 0.113c16.901 20.983 30.707 45.362 40.187 71.801l0.546 1.746 29.419 74.678-213.852 547.642h67.89z" />
<glyph unicode="&#xe95e;" glyph-name="domain_block" d="M977.447 820.382v23.237c-1.202 63.348-52.839 114.241-116.362 114.241s-115.159-50.893-116.36-114.128l-0.002-0.112v-23.276c-25.683-0.067-46.486-20.869-46.553-46.546v-186.177c0.067-25.683 20.869-46.486 46.546-46.553h232.73c25.683 0.067 46.486 20.869 46.553 46.546v186.216c-0.067 25.683-20.869 46.486-46.546 46.553h-0.006zM940.229 820.382h-158.247v23.237c0 43.699 35.425 79.124 79.124 79.124s79.124-35.425 79.124-79.124v0-23.276zM834.087 448c2.059-13.709 3.408-29.81 3.735-46.163l0.006-0.39c0-0.069 0-0.152 0-0.234 0-96.807-37.156-184.935-97.985-250.902l0.233 0.255c-12.132 37.817-46.986 64.709-88.122 64.709-0.104 0-0.209 0-0.313-0.001h-46.537v139.618c-0.067 25.683-20.869 46.486-46.546 46.553h-279.282v93.105h93.105c25.683 0.067 46.486 20.869 46.553 46.546v93.072h93.066c51.358 0.156 92.949 41.748 93.105 93.090v118.169c-41.764 13.614-89.823 21.465-139.716 21.465-257.059 0-465.447-208.388-465.447-465.447s208.388-465.447 465.447-465.447c0.020 0 0.041 0 0.061 0h-0.003c66.037 0.39 128.779 14.052 185.837 38.448l-3.131-1.19c167.509 71.636 282.751 235.023 282.751 425.326 0 1.007-0.003 2.013-0.010 3.018l0.001-0.155c0 15.754-0.945 31.193-2.324 46.553zM418.895 32.335c-184.607 23.676-325.829 179.833-325.829 368.974 0 0.049 0 0.098 0 0.146v-0.008c0.168 29.622 3.719 58.33 10.284 85.869l-0.517-2.571 222.956-222.956v-46.553c0.156-51.358 41.748-92.949 93.090-93.105h0.015z" />
<glyph unicode="&#xe95f;" glyph-name="smtp" horiz-adv-x="718" d="M717.824 219.175c0.005-0.62 0.008-1.352 0.008-2.085 0-51.202-14.206-99.087-38.891-139.927l0.68 1.212c-27.462-44.36-65.902-79.564-111.603-102.391l-1.589-0.718c-49.997-24.778-108.871-39.275-171.131-39.275-4.015 0-8.015 0.060-12 0.18l0.584-0.014c-2.291-0.040-4.995-0.063-7.703-0.063-65.655 0-128.189 13.359-185.034 37.506l3.1-1.17c-54.38 22.908-99.57 58.497-133.321 103.204l-0.586 0.811c-32.483 44.085-53.333 98.547-57.064 157.656l-0.044 0.867h212.244c3.943-39.95 21.887-75.097 48.787-101.013l0.050-0.048c27.206-25.178 63.738-40.622 103.878-40.622 2.569 0 5.124 0.063 7.662 0.188l-0.357-0.014c2.588-0.185 5.607-0.29 8.651-0.29 33.487 0 64 12.734 86.961 33.624l-0.104-0.094c20.6 20.899 33.321 49.611 33.321 81.295 0 1.522-0.029 3.036-0.087 4.544l0.007-0.217c0.042 1.146 0.066 2.493 0.066 3.845 0 28.016-10.267 53.633-27.245 73.295l0.121-0.144c-18.565 20.576-41.201 37.092-66.684 48.343l-1.255 0.494q-40.842 18.511-112.994 42.575c-60.284 19.32-110.955 40.164-159.609 64.447l6.482-2.929c-40.962 21.571-74.871 51.436-100.509 87.58l-0.591 0.878c-26.333 39.326-42.026 87.71-42.026 139.759 0 4.176 0.101 8.328 0.301 12.454l-0.022-0.582c-0.142 3.128-0.223 6.797-0.223 10.484 0 77.615 35.911 146.843 92.024 191.975l0.478 0.372c62.507 46.685 141.296 74.748 226.64 74.748 6.642 0 13.245-0.17 19.803-0.506l-0.92 0.038c6.12 0.344 13.28 0.54 20.486 0.54 87.494 0 168.238-28.897 233.21-77.668l-1.004 0.722c60.7-48.952 100.961-121.138 107.185-202.841l0.060-0.975h-215.079c-4.828 35.082-21.192 65.67-45.075 88.441l-0.060 0.057c-24.61 21.657-57.104 34.874-92.686 34.874-2.738 0-5.458-0.078-8.158-0.233l0.374 0.017c-1.855 0.093-4.028 0.146-6.213 0.146-31.514 0-60.459-11-83.206-29.369l0.252 0.197c-21.141-19.212-34.361-46.818-34.361-77.511 0-2.355 0.078-4.692 0.231-7.008l-0.017 0.315c-0.043-1.122-0.068-2.44-0.068-3.763 0-26.569 9.894-50.827 26.199-69.29l-0.098 0.113c18.329-19.746 40.438-35.7 65.212-46.756l1.269-0.506c28.35-12.987 64.621-26.922 101.763-38.921l7.726-2.157c63.294-21.655 114.962-43.179 165.030-67.484l-8.673 3.799c41.692-21.349 76.115-51.536 101.81-88.276l0.59-0.89c27.135-40.61 43.303-90.553 43.303-144.272 0-4.070-0.093-8.119-0.276-12.143l0.021 0.571z" />
<glyph unicode="&#xe960;" glyph-name="gmail" d="M1015.097 544.018h-491.772v-202.949h273.736c-25.46-66.413-71.377-120.234-129.927-155.022l-1.406-0.774c-44.016-26.17-97.047-41.638-153.69-41.638-129.727 0-240.505 81.134-284.357 195.428l-0.703 2.085c-12.222 31.751-19.302 68.486-19.302 106.874 0 35.385 6.015 69.365 17.080 100.974l-0.653-2.142c42.351 120.569 155.22 205.46 287.916 205.46 59.612 0 115.222-17.132 162.176-46.74l-1.257 0.74 166.117 135.824c-87.938 73.231-202.088 117.683-326.621 117.683-282.824 0-512.098-229.274-512.098-512.098 0-88.749 22.576-172.225 62.299-244.998l-1.339 2.679c88.259-161.622 257.014-269.426 450.949-269.426 121.795 0 233.659 42.519 321.559 113.523l-0.972-0.76c117.206 94.739 191.533 238.498 191.533 399.617 0 33.804-3.272 66.844-9.516 98.821l0.527-3.239z" />
<glyph unicode="&#xe961;" glyph-name="Edit_quota" d="M461.028 593.408v366.592c-260.276-28.089-461.125-246.589-461.125-512s200.849-483.912 458.847-511.8l2.277-0.2v366.592c-58.234 24.626-99.041 79.866-102.384 145.006l-0.016 0.402c3.359 65.542 44.166 120.782 101.309 144.998l1.091 0.41zM658.66 499.2h365.492c-20.889 245.607-215.126 439.87-458.859 460.672l-1.865 0.128v-366.592c45.457-14.118 80.637-48.96 94.948-93.192l0.284-1.016zM563.428 302.592v-366.592c245.598 20.93 439.835 215.193 460.596 458.938l0.128 1.862h-365.53c-14.596-45.248-49.775-80.090-94.214-93.935l-1.018-0.273z" />
<glyph unicode="&#xe962;" glyph-name="warning" horiz-adv-x="1109" d="M0-46.549h1109.333l-554.667 958.080zM605.099 104.704h-100.864v100.907h100.864zM605.099 306.389h-100.864v201.728h100.864z" />
<glyph unicode="&#xe963;" glyph-name="EmailQuoteblock" d="M512 960c-282.77 0-512-229.23-512-512s229.23-512 512-512c282.77 0 512 229.23 512 512v0c0 282.77-229.23 512-512 512v0zM102.4 448c0 226.216 183.384 409.6 409.6 409.6v0c0.21 0 0.459 0.001 0.708 0.001 94.833 0 182.043-32.636 251.013-87.289l-0.84 0.643-573.834-573.834c-54.011 68.129-86.647 155.339-86.647 250.172 0 0.249 0 0.498 0.001 0.747v-0.039zM512 38.4c-0.21 0-0.459-0.001-0.708-0.001-94.833 0-182.043 32.636-251.013 87.289l0.84-0.643 573.834 573.834c54.011-68.129 86.647-155.339 86.647-250.172 0-0.249 0-0.498-0.001-0.747v0.039c0-226.216-183.384-409.6-409.6-409.6v0z" />
<glyph unicode="&#xe964;" glyph-name="checkbox-checked" d="M910.218 960h-796.436c-0.012 0-0.026 0-0.039 0-62.818 0-113.743-50.924-113.743-113.743 0-0.014 0-0.028 0-0.042v0.002-796.436c0-0.012 0-0.026 0-0.039 0-62.818 50.924-113.743 113.743-113.743 0.014 0 0.028 0 0.042 0h796.433c0.012 0 0.026 0 0.039 0 62.818 0 113.743 50.924 113.743 113.743 0 0.014 0 0.028 0 0.042v-0.002 796.436c0 0.012 0 0.026 0 0.039 0 62.818-50.924 113.743-113.743 113.743-0.014 0-0.028 0-0.042 0h0.002zM398.218 163.564l-284.436 284.436 80.226 80.226 204.249-203.658 431.734 431.774 80.226-80.778z" />
<glyph unicode="&#xe965;" glyph-name="checkbox-unchecked" d="M910.218 846.218v-796.436h-796.436v796.436h796.436zM910.218 960h-796.436c-62.741-0.245-113.537-51.041-113.782-113.759v-796.459c0.245-62.741 51.041-113.537 113.759-113.782h796.459c62.741 0.245 113.537 51.041 113.782 113.759v796.459c-0.245 62.741-51.041 113.537-113.759 113.782h-0.023z" />
<glyph unicode="&#xe966;" glyph-name="remove-check-all" d="M910.218 960h-796.436c-62.741-0.245-113.537-51.041-113.782-113.759v-796.459c0.245-62.741 51.041-113.537 113.759-113.782h796.459c62.741 0.245 113.537 51.041 113.782 113.759v796.459c-0.245 62.741-51.041 113.537-113.759 113.782h-0.023zM796.436 391.129h-568.871v113.743h568.871z" />
<glyph unicode="&#xe967;" glyph-name="close-rounded" d="M644.608 652.8l-132.608-132.608-132.608 132.608-72.192-72.192 132.608-132.608-132.608-132.608 72.192-72.192 132.608 132.608 132.608-132.608 72.192 72.192-132.608 132.608 132.608 132.608zM512 960c-282.77 0-512-229.23-512-512s229.23-512 512-512c282.77 0 512 229.23 512 512v0c0 0.14 0 0.306 0 0.473 0 282.509-229.019 511.527-511.527 511.527-0.166 0-0.332 0-0.498 0h0.025zM512 38.4c-226.216 0-409.6 183.384-409.6 409.6s183.384 409.6 409.6 409.6c226.216 0 409.6-183.384 409.6-409.6v0c-0.314-226.090-183.511-409.287-409.57-409.6h-0.030z" />
<glyph unicode="&#xe968;" glyph-name="android" d="M252.062 192c0.377-23.637 19.627-42.654 43.318-42.654 0.002 0 0.004 0 0.005 0h43.323v-149.346c0-35.89 29.095-64.985 64.985-64.985s64.985 29.095 64.985 64.985v0 149.346h86.646v-149.346c0-35.89 29.095-64.985 64.985-64.985s64.985 29.095 64.985 64.985v0 149.346h43.323c0.002 0 0.003 0 0.005 0 23.691 0 42.941 19.017 43.317 42.618v426.689h-519.877zM143.754 618.654c-0.176 0.002-0.384 0.003-0.592 0.003-35.426 0-64.171-28.608-64.393-63.982v-298.675c0-35.89 29.095-64.985 64.985-64.985s64.985 29.095 64.985 64.985v0 298.654c-0.222 35.395-28.966 64.003-64.393 64.003-0.208 0-0.416-0.001-0.624-0.003h0.032zM880.246 618.654c-0.176 0.002-0.384 0.003-0.592 0.003-35.426 0-64.171-28.608-64.393-63.982v-298.675c0-35.89 29.095-64.985 64.985-64.985s64.985 29.095 64.985 64.985v0 298.654c-0.222 35.395-28.966 64.003-64.393 64.003-0.208 0-0.416-0.001-0.624-0.003h0.032zM664.93 867.84l56.32 55.454c4.001 3.817 6.49 9.189 6.49 15.143s-2.488 11.327-6.481 15.136l-0.008 0.008c-3.926 3.958-9.367 6.407-15.38 6.407s-11.454-2.45-15.378-6.406l-0.001-0.001-64.276-63.134c-33.284 16.959-72.589 26.897-114.215 26.9h-0.001c-0.025 0-0.054 0-0.083 0-41.946 0-81.571-9.935-116.65-27.581l1.494 0.681-64.551 63.134c-3.926 3.958-9.367 6.407-15.38 6.407s-11.454-2.45-15.378-6.406l-0.001-0.001c-4.001-3.817-6.49-9.189-6.49-15.143s2.488-11.327 6.481-15.136l0.008-0.008 56.95-55.887c-64.537-46.529-106.117-121.416-106.338-206.025v-0.035h519.877c-0.111 84.946-42.010 160.083-106.238 205.971l-0.77 0.523zM425.354 746.654h-43.323v42.693h43.323zM641.969 746.654h-43.323v42.693h43.323z" />
<glyph unicode="&#xe969;" glyph-name="arrow-down-fill" d="M0 621.017l512-393.846 512 393.846z" />
<glyph unicode="&#xe96a;" glyph-name="share_grp" horiz-adv-x="1031" d="M698.171 477.263c78.427 5.679 139.902 70.7 139.902 150.079 0 3.248-0.103 6.472-0.306 9.668l0.022-0.437c0.181 2.76 0.283 5.984 0.283 9.232 0 79.379-61.475 144.4-139.414 150.051l-0.488 0.028c-78.427-5.679-139.902-70.7-139.902-150.079 0-3.248 0.103-6.472 0.306-9.668l-0.022 0.437c-0.009-0.636-0.013-1.387-0.013-2.139 0-42.345 15.412-81.090 40.932-110.932l-0.195 0.234c23.928-28.22 59.286-46.114 98.833-46.473h0.062zM325.79 477.263c78.427 5.679 139.902 70.7 139.902 150.079 0 3.248-0.103 6.472-0.306 9.668l0.022-0.437c0.181 2.76 0.283 5.984 0.283 9.232 0 79.379-61.475 144.4-139.414 150.051l-0.488 0.028c-78.427-5.679-139.902-70.7-139.902-150.079 0-3.248 0.103-6.472 0.306-9.668l-0.022 0.437c-0.009-0.636-0.013-1.387-0.013-2.139 0-42.345 15.412-81.090 40.932-110.932l-0.195 0.234c23.928-28.22 59.286-46.114 98.833-46.473h0.062zM325.79 370.924c-108.426 0.118-325.79-61.991-325.79-185.502v-132.726h651.618v132.726c0 123.51-217.364 185.62-325.829 185.62zM698.171 370.924c-13.509 0-28.869-1.103-45.135-2.678 55.559-42.505 91.182-108.645 91.726-183.129l0.001-0.088v-132.726h279.237v133.12c0 123.51-217.364 185.62-325.829 185.62z" />
<glyph unicode="&#xe96b;" glyph-name="all-List" d="M0 369.615h113.738v81.219h-113.738zM0 207.138h113.738v81.219h-113.738zM0 532.054h113.738v81.259h-113.738zM227.437 369.615h796.169v81.219h-796.169zM227.437 207.138h796.169v81.219h-796.169zM227.437 613.312v-81.259h796.169v81.259z" />
<glyph unicode="&#xe96c;" glyph-name="office-365" horiz-adv-x="870" d="M0 755.168l563.287 204.832 307.247-76.812v-870.534l-307.247-76.812-563.287 204.832 563.287-76.812v742.514l-358.455-76.812v-512.079l-204.832-76.812z" />
<glyph unicode="&#xe96d;" glyph-name="minimize" d="M0 155.412h219.412v-219.412h146.274v365.726h-365.686zM219.412 740.549h-219.412v-146.274h365.726v365.726h-146.314zM658.274-64h146.274v219.412h219.451v146.314h-365.726zM804.549 740.588v219.412h-146.274v-365.726h365.726v146.314z" />
<glyph unicode="&#xe96e;" glyph-name="arrow-right" horiz-adv-x="1019" d="M206.218 840.271l383.488-389.671-383.488-389.671 118.075-119.611 502.39 509.322-502.39 509.361z" />
<glyph unicode="&#xe96f;" glyph-name="arrow-left" horiz-adv-x="1006" d="M806.558 82.038l-379.707 380.534 379.707 380.574-116.972 116.854-497.428-497.428 497.428-497.428z" />
<glyph unicode="&#xe970;" glyph-name="maximize" d="M152.852 298.969h-145.211v-363.008h363.008v145.211h-217.797zM7.641 589.351h145.211v217.797h217.797v145.211h-363.008zM878.828 81.29h-217.797v-145.211h363.008v362.89h-145.211zM661.031 952.359v-145.211h217.797v-217.797h145.211v363.008z" />
<glyph unicode="&#xe971;" glyph-name="add-folder" d="M921.6 742.242h-409.6l-102.4 102.4h-307.2c-0.083 0-0.181 0-0.279 0-56.119 0-101.612-45.493-101.612-101.612 0-0.277 0.001-0.554 0.003-0.831v0.042l-0.512-614.4c0-0.105-0.001-0.23-0.001-0.355 0-56.358 45.687-102.046 102.046-102.046 0.125 0 0.25 0 0.374 0.001h819.181c0.105 0 0.23-0.001 0.355-0.001 56.358 0 102.046 45.687 102.046 102.046 0 0.125 0 0.25-0.001 0.374v-0.019 512c0 0.105 0.001 0.23 0.001 0.355 0 56.358-45.687 102.046-102.046 102.046-0.125 0-0.25 0-0.374-0.001h0.019zM870.4 332.642h-153.6v-153.6h-102.4v153.6h-153.6v102.4h153.6v153.6h102.4v-153.6h153.6z" />
<glyph unicode="&#xe972;" glyph-name="snippet" d="M921.6 859.845h-819.2c-57.369-4.677-102.156-52.389-102.156-110.561 0-2.505 0.083-4.991 0.247-7.454l-0.018 0.334-0.473-588.288c-0.147-2.14-0.231-4.639-0.231-7.156 0-58.324 45.053-106.126 102.256-110.502l0.376-0.023h819.2c57.578 4.399 102.631 52.201 102.631 110.525 0 2.518-0.084 5.016-0.249 7.492l0.018-0.336v588.288c0.147 2.14 0.231 4.639 0.231 7.156 0 58.324-45.053 106.126-102.256 110.502l-0.376 0.023zM460.8 683.362h102.4v-117.681h-102.4zM460.8 506.88h102.4v-117.681h-102.4zM307.2 683.362h102.4v-117.681h-102.4zM307.2 506.88h102.4v-117.681h-102.4zM256 389.199h-102.4v117.642h102.4zM256 565.681h-102.4v117.681h102.4zM716.8 153.876h-409.6v117.642h409.6zM716.8 389.199h-102.4v117.642h102.4zM716.8 565.681h-102.4v117.681h102.4zM870.4 389.199h-102.4v117.642h102.4zM870.4 565.681h-102.4v117.681h102.4z" />
<glyph unicode="&#xe973;" d="M0 960h483.564v-483.564h-483.564v483.564z" />
<glyph unicode="&#xe974;" d="M0 419.525h483.564v-483.564h-483.564v483.564z" />
<glyph unicode="&#xe975;" d="M540.436 960h483.564v-483.564h-483.564v483.564z" />
<glyph unicode="&#xe976;" d="M540.436 419.525h483.564v-483.564h-483.564v483.564z" />
<glyph unicode="&#xe977;" horiz-adv-x="1234" d="M768 407.040v128h358.4v81.92h-358.4v128l-204.8-168.96 204.8-168.96z" />
<glyph unicode="&#xe978;" horiz-adv-x="1234" d="M460.8 360.96h-358.4v-87.040h358.4v-128l204.8 168.96-204.8 174.080v-128z" />
<glyph unicode="&#xe979;" horiz-adv-x="1234" d="M768 407.040v128h358.4v81.92h-358.4v128l-204.8-168.96 204.8-168.96z" />
<glyph unicode="&#xe97a;" horiz-adv-x="1234" d="M460.8 360.96h-358.4v-87.040h358.4v-128l204.8 168.96-204.8 174.080v-128z" />
<glyph unicode="&#xe97b;" glyph-name="email-deliverability" d="M320.588 120.302c3.392-1.443 7.338-2.282 11.479-2.282 8.283 0 15.783 3.356 21.214 8.781v0l100.127 100.127-151.333 123.879v-202.697c0-0.021 0-0.047 0-0.072 0-12.419 7.553-23.075 18.316-27.623l0.197-0.074zM51.206-55.334l122.106 122.106c5.428 5.428 8.786 12.928 8.786 21.211 0 16.567-13.43 29.997-29.997 29.997-8.283 0-15.783-3.358-21.211-8.786l-122.106-122.106c-5.428-5.428-8.786-12.928-8.786-21.211 0-16.567 13.43-29.997 29.997-29.997 8.283 0 15.783 3.358 21.211 8.786v0zM351.273-55.334l122.106 122.106c5.428 5.428 8.786 12.928 8.786 21.211 0 16.567-13.43 29.997-29.997 29.997-8.283 0-15.783-3.358-21.211-8.786v0l-122.106-122.106c-5.428-5.428-8.786-12.928-8.786-21.211 0-16.567 13.43-29.997 29.997-29.997 8.283 0 15.783 3.358 21.211 8.786v0zM51.206 184.664l122.106 122.106c5.428 5.428 8.786 12.928 8.786 21.211 0 16.567-13.43 29.997-29.997 29.997-8.283 0-15.783-3.358-21.211-8.786l-122.106-122.106c-5.428-5.428-8.786-12.928-8.786-21.211 0-16.567 13.43-29.997 29.997-29.997 8.283 0 15.783 3.358 21.211 8.786v0zM24.736 717.166c-13.199-3.328-22.813-15.095-22.813-29.107 0-9.329 4.262-17.663 10.945-23.16l0.052-0.041 269.107-220.107 704.239 515.25zM330.318 405.519l342.686-280.49c5.128-4.214 11.759-6.769 18.987-6.769 12.693 0 23.545 7.879 27.934 19.012l0.071 0.204 303.927 775.966z" />
<glyph unicode="&#xe97c;" glyph-name="branded-link" d="M70.814 6.971c-43.864 44.087-70.98 104.873-70.98 171.993s27.116 127.906 70.99 172.003l211.761 211.761c44.056 43.93 104.852 71.093 171.993 71.093s127.936-27.163 171.998-71.099l-0.006 0.006c6.773-6.773 10.963-16.131 10.963-26.466 0-20.672-16.758-37.429-37.429-37.429-10.336 0-19.693 4.189-26.466 10.963v0c-30.547 30.335-72.633 49.082-119.099 49.082s-88.553-18.748-119.109-49.092l-211.525-211.643c-30.484-30.493-49.337-72.614-49.337-119.138 0-93.068 75.447-168.515 168.515-168.515 46.544 0 88.681 18.87 119.177 49.376l145.723 145.723c6.764 6.733 16.093 10.895 26.393 10.895 20.664 0 37.415-16.751 37.415-37.415 0-10.31-4.17-19.646-10.916-26.414l-145.722-145.722c-44.087-43.864-104.873-70.98-171.993-70.98s-127.906 27.116-172.003 70.99l0.010-0.010zM598.567-8.507v112.049c0 20.664 16.751 37.415 37.415 37.415s37.415-16.751 37.415-37.415v0-112.286c0-20.664-16.751-37.415-37.415-37.415s-37.415 16.751-37.415 37.415v0zM796.711 35.367l-79.399 79.399c-6.733 6.764-10.895 16.093-10.895 26.393 0 20.664 16.751 37.415 37.415 37.415 10.31 0 19.646-4.17 26.414-10.916l79.398-79.359c6.773-6.773 10.963-16.131 10.963-26.466 0-20.672-16.758-37.429-37.429-37.429-10.336 0-19.693 4.189-26.466 10.963v0zM747.638 216.103c-20.664 0-37.415 16.751-37.415 37.415s16.751 37.415 37.415 37.415h112.286c20.664 0 37.415-16.751 37.415-37.415s-16.751-37.415-37.415-37.415v0zM388.49 324.529c-6.773 6.773-10.963 16.131-10.963 26.466 0 20.672 16.758 37.429 37.429 37.429 10.336 0 19.693-4.189 26.466-10.963v0c30.514-30.422 72.62-49.231 119.119-49.231s88.605 18.81 119.123 49.236l225.158 225.040c29.663 30.35 47.965 71.915 47.965 117.754 0 93.075-75.452 168.527-168.527 168.527-45.839 0-87.404-18.301-117.786-47.996l0.032 0.031-172.032-172.111c-6.773-6.773-16.131-10.963-26.466-10.963-20.672 0-37.429 16.758-37.429 37.429 0 10.336 4.189 19.693 10.963 26.466l171.993 171.835c43.53 41.365 102.532 66.809 167.476 66.809 134.381 0 243.318-108.937 243.318-243.318 0-64.944-25.444-123.946-66.907-167.58l0.098 0.104-225.044-224.965c-44.061-43.921-104.855-71.077-171.993-71.077s-127.932 27.156-171.999 71.083l0.006-0.006zM111.498 571.628c-20.664 0-37.415 16.751-37.415 37.415s16.751 37.415 37.415 37.415v0h112.364c20.664 0 37.415-16.751 37.415-37.415s-16.751-37.415-37.415-37.415v0zM198.144 694.863l-79.439 79.439c-6.773 6.773-10.963 16.131-10.963 26.466 0 20.672 16.758 37.429 37.429 37.429 10.336 0 19.693-4.189 26.466-10.963l79.321-79.399c6.745-6.766 10.915-16.103 10.915-26.413 0-20.664-16.751-37.415-37.415-37.415-10.3 0-19.628 4.162-26.394 10.896l0.001-0.001zM299.244 758.784v112.286c0 20.664 16.751 37.415 37.415 37.415s37.415-16.751 37.415-37.415v0-112.286c0-20.664-16.751-37.415-37.415-37.415s-37.415 16.751-37.415 37.415v0z" />
<glyph unicode="&#xe97d;" horiz-adv-x="1147" d="M473.803 334.203l-473.803 279.95v-677.977l573.398 338.878z" />
<glyph unicode="&#xe97e;" horiz-adv-x="1147" d="M573.442 274.657l573.089-338.657v678.021l-103.256-61.001h-0.265v-0.485z" />
<glyph unicode="&#xe97f;" horiz-adv-x="1147" d="M573.971 274.569v0l-0.706 0.441-573.265-339.010h1146.487z" />
<glyph unicode="&#xe980;" horiz-adv-x="1147" d="M573.089 273.996l0.75-0.441 468.951 277.877v408.568l-939.225-0.309v-406.804l469.128-278.848zM366.886 716.35h157.155l49.356 161.698 49.356-161.875h157.155l-127.074-98.272 49.356-160.728-128.573 99.551-128.485-99.418 49.048 160.728z" />
<glyph unicode="&#xe981;" horiz-adv-x="1147" d="M103.476 691.694l-103.476-78.247 103.476-61.001z" />
<glyph unicode="&#xe982;" horiz-adv-x="1147" d="M1146.531 613.315h0.309l-103.476 78.247v-139.38z" />
<glyph unicode="&#xe983;" horiz-adv-x="1147" d="M573.618 556.725l128.618-99.418-49.4 160.728 127.25 98.272h-157.331l-49.4 161.742-49.4-161.875h-157.331l127.471-98.272-49.092-160.728z" />
<glyph unicode="&#xe984;" horiz-adv-x="1565" d="M459.852 394.107l1104.885 565.893-916.274-673.679 538.992-350.321 377.282 1024-1564.737-323.359z" />
<glyph unicode="&#xe985;" horiz-adv-x="1565" d="M649.366 286.321l-105.86-350.321-82.45 457.986 1103.681 566.014z" />
<glyph unicode="&#xe986;" horiz-adv-x="1565" d="M648.403 286.983l-107.967-350.983 319.929 213.286z" />
<glyph unicode="&#xe987;" d="M227.385 341.023l-35.685-133.327-130.531-2.836c-38.544 70.363-61.215 154.161-61.215 243.255 0 86.122 21.184 167.296 58.625 238.597l-1.349-2.819 116.154-21.309 51.125-115.524c-10.447-29.549-16.484-63.625-16.484-99.112 0-38.448 7.086-75.241 20.024-109.144l-0.704 2.101z" />
<glyph unicode="&#xe988;" d="M1015.059 544.815c5.746-28.818 9.035-61.948 9.035-95.846 0-161.327-74.482-305.258-190.936-399.282l-0.976-0.762-146.364 7.484-20.718 129.31c60.063 35.647 106.057 89.583 130.848 154.041l0.707 2.092h-274.296v202.925h492.739z" />
<glyph unicode="&#xe989;" d="M834.112 48.924v0c-87.091-70.361-199.158-112.95-321.173-112.95-194.297 0-363.371 107.995-450.469 267.234l-1.341 2.676 166.216 136.006c44.635-116.619 155.636-197.924 285.626-197.924 56.749 0 109.879 15.496 155.389 42.487l-1.41-0.774z" />
<glyph unicode="&#xe98a;" d="M840.375 841.916l-166.019-136.045c-45.796 28.948-101.533 46.128-161.283 46.128-132.943 0-246.021-85.051-287.79-203.709l-0.655-2.136-167.161 136.833c87.278 165.828 258.417 276.966 455.513 276.966 124.84 0 239.266-44.587 328.222-118.706l-0.827 0.67z" />
<glyph unicode="&#xe98b;" glyph-name="new-window" d="M910.218 49.782h-796.436v796.436h398.218v113.782h-398.218c-62.84 0-113.782-50.942-113.782-113.782v0-796.436c0-62.84 50.942-113.782 113.782-113.782h796.436c62.84 0 113.782 50.942 113.782 113.782v0 398.218h-113.782zM625.782 960v-113.782h204.288l-559.262-559.262 80.266-80.187 559.262 559.262v-204.209h113.664v398.178z" />
<glyph unicode="&#xe98c;" glyph-name="minus" d="M1024 384h-1024v128h1024z" />
<glyph unicode="&#xe98d;" d="M986.434 639.96h-474.434c-0.104 0-0.226 0-0.349 0-106.042 0-192.006-85.964-192.006-192.006 0-34.467 9.081-66.812 24.982-94.774l-0.497 0.949-237.013 407.014c94.485 121.441 240.651 198.821 404.891 198.821 213.516 0 396.487-130.779 473.181-316.603l1.243-3.401z" />
<glyph unicode="&#xe98e;" d="M1024 447.955c-0.232-282.676-229.323-511.767-511.977-512h-0.023c-0.515-0.002-1.125-0.003-1.735-0.003-21.966 0-43.571 1.551-64.709 4.55l2.427-0.282 230.389 411.732c16.073 27.512 25.563 60.571 25.563 95.846 0 70.759-38.186 132.6-95.075 166.038l-0.903 0.491c-27.324 16.086-60.193 25.589-95.282 25.589-0.094 0-0.187 0-0.281 0h474.039c23.761-56.509 37.567-122.191 37.567-191.099 0-0.303 0-0.605-0.001-0.908v0.046z" />
<glyph unicode="&#xe98f;" d="M678.417 351.997l-230.389-411.732h-0.454c-253.566 33.045-447.37 247.702-447.37 507.625 0 118.53 40.302 227.646 107.951 314.393l-0.855-1.139 238.51-409.146c33.79-57.906 95.621-96.198 166.394-96.198s132.604 38.292 165.903 95.288l0.491 0.91z" />
<glyph unicode="&#xe990;" d="M678.417 351.952c-33.79-57.906-95.621-96.198-166.394-96.198s-132.604 38.292-165.903 95.288l-0.491 0.91-1.27 2.132c-15.404 27.013-24.486 59.359-24.486 93.825 0 106.042 85.964 192.006 192.006 192.006 0.123 0 0.245 0 0.368 0h0.389c0.079 0 0.173 0 0.267 0 35.089 0 67.959-9.502 96.176-26.074l-0.894 0.485c57.715-33.947 95.842-95.746 95.842-166.45 0-35.307-9.507-68.393-26.101-96.839l0.493 0.914z" />
<glyph unicode="&#xe991;" d="M678.417 351.952c-33.79-57.906-95.621-96.198-166.394-96.198s-132.604 38.292-165.903 95.288l-0.491 0.91-1.27 2.132c-15.404 27.013-24.486 59.359-24.486 93.825 0 106.042 85.964 192.006 192.006 192.006 0.123 0 0.245 0 0.368 0h0.389c0.079 0 0.173 0 0.267 0 35.089 0 67.959-9.502 96.176-26.074l-0.894 0.485c57.715-33.947 95.842-95.746 95.842-166.45 0-35.307-9.507-68.393-26.101-96.839l0.493 0.914z" />
<glyph unicode="&#xe992;" d="M511.274 234.625c-39.007 0-75.552 10.546-106.937 28.943l0.999-0.541c-64.326 37.591-106.856 106.311-106.856 184.964 0 117.919 95.592 213.511 213.511 213.511s213.511-95.592 213.511-213.511c0-39.284-10.609-76.090-29.119-107.709l0.546 1.009c-37.857-64.239-106.688-106.665-185.429-106.665-0.079 0-0.158 0-0.237 0h0.012zM512.363 618.636c-0.125 0-0.273 0.001-0.421 0.001-94.29 0-170.727-76.437-170.727-170.727s76.437-170.727 170.727-170.727c62.906 0 117.866 34.022 147.483 84.669l0.436 0.808c14.36 24.47 22.841 53.893 22.841 85.296 0 94.128-76.196 170.46-170.272 170.681h-0.021z" />
<glyph unicode="&#xe993;" glyph-name="profile-round" d="M512 960c-282.77 0-512-229.23-512-512s229.23-512 512-512c282.77 0 512 229.23 512 512v0c0 282.77-229.23 512-512 512v0zM512 806.4c84.831 0 153.6-68.769 153.6-153.6s-68.769-153.6-153.6-153.6c-84.831 0-153.6 68.769-153.6 153.6v0c0 84.831 68.769 153.6 153.6 153.6v0zM512 79.36c0 0-0.001 0-0.002 0-127.681 0-240.201 64.912-306.36 163.536l-0.839 1.328c1.536 101.888 204.8 157.867 307.2 157.867s305.664-55.808 307.2-157.867c-66.997-99.952-179.517-164.864-307.198-164.864-0.001 0-0.001 0-0.002 0v0z" />
<glyph unicode="&#xe994;" glyph-name="flash_on" horiz-adv-x="945" d="M275.692 960v-563.2h118.154v-460.8l275.692 614.4h-157.538l157.538 409.6z" />
<glyph unicode="&#xe995;" glyph-name="verified_user" horiz-adv-x="1014" d="M502.677 960l-414.905-184.398v-276.617c-0.002-0.566-0.003-1.237-0.003-1.907 0-260.286 173.322-480.091 410.849-550.297l4.059-1.029c241.606 71.222 414.947 291.036 414.947 551.337 0 0.667-0.001 1.333-0.003 2v-0.104 276.617zM410.497 222.369l-184.437 184.398 64.99 64.99 119.447-118.94 303.845 303.845 64.99-65.458z" />
<glyph unicode="&#xe996;" glyph-name="schedule-demo" d="M853.346 154.506c47.774 3.774 85.113 43.472 85.113 91.89 0 2.132-0.072 4.247-0.215 6.343l0.015-0.283 0.394 488.921c0.103 1.639 0.162 3.553 0.162 5.482 0 48.654-37.479 88.555-85.141 92.407l-0.329 0.021h-682.693c-47.989-3.876-85.465-43.775-85.465-92.428 0-1.901 0.057-3.789 0.17-5.661l-0.012 0.257v-488.999c-0.108-1.673-0.169-3.628-0.169-5.597 0-48.671 37.504-88.582 85.189-92.411l0.327-0.021h-170.693v-97.831h1024v97.91zM170.654 741.455h682.693v-488.999h-682.693z" />
<glyph unicode="&#xe997;" glyph-name="headset-mic" d="M494.631 960c-245.406 0-444.377-185.817-444.377-415.035v-322.954c0.228-38.663 16.836-73.403 43.227-97.666l0.096-0.087c27.248-25.077 63.767-40.451 103.876-40.451 0.326 0 0.651 0.001 0.977 0.003h148.076v368.955h-197.514v92.199c0 178.294 154.742 322.954 345.639 322.954s345.679-144.542 345.679-322.954v-92.199h-197.711v-368.916h197.514v-46.119h-345.403v-92.199h296.251c0.275-0.002 0.601-0.003 0.926-0.003 40.109 0 76.628 15.374 103.985 40.55l-0.109-0.099c26.493 24.391 43.099 59.17 43.323 97.83v461.156c-0.039 229.218-199.010 415.035-444.455 415.035z" />
<glyph unicode="&#xeac4;" glyph-name="filled-check" d="M512 960c-282.77 0-512-229.23-512-512s229.23-512 512-512c282.77 0 512 229.23 512 512v0c0 282.77-229.23 512-512 512v0zM409.6 192l-256 256 72.192 72.192 183.808-183.296 388.608 388.608 72.192-72.704z" />
</font>
</defs>
</svg>
